<?xml version="1.0" encoding="UTF-8"?><svg id="Layer_1" xmlns="http://www.w3.org/2000/svg" viewBox="0 0 270 235"><defs><style>.cls-1{fill:#1d1d1b;}</style></defs><path class="cls-1" d="m30.84,117.44c0-2.45,1.37-3.88,3.81-3.88,1.46,0,2.55.57,3,1.56l-1.15.87c-.42-.69-1.11-1.08-1.9-1.08-1.42,0-2.24.89-2.24,2.46,0,1.71.96,2.63,2.66,2.63.7,0,1.4-.07,2.07-.18l.17,1.32c-.78.17-1.62.21-2.41.21-2.56,0-4.01-1.39-4.01-3.91Z"/><path class="cls-1" d="m41.28,118.37v-6.47h-2.21v-1.32h3.71v7.72c0,1.19.24,1.7,1.53,1.7.42,0,.88-.08,1.5-.27l.17,1.32c-.76.21-1.43.3-2.24.3-1.74,0-2.46-.89-2.46-2.97Z"/><path class="cls-1" d="m47.91,118.65v-4.96h1.5v4.96c0,.86.52,1.35,1.4,1.35,1.09,0,1.66-.63,1.66-2.27v-4.04h1.5v6.15l1.03.16v1.2l-2.41.07-.11-1.52h-.13c-.24,1.02-.96,1.59-1.97,1.59-1.58,0-2.48-.98-2.48-2.69Z"/><path class="cls-1" d="m56.53,121.2v-10.62h1.5v4.48h.14c.07-1.01.68-1.5,1.84-1.5,2,0,3.14,1.23,3.14,3.4,0,2.79-1.68,4.39-4.62,4.39-.68,0-1.33-.06-2.01-.14Zm1.5-1.15c.27.02.54.02.81.02,1.81,0,2.83-1.13,2.83-3.12,0-1.36-.62-2.12-1.73-2.12-1.27,0-1.91.71-1.91,2.15v3.07Z"/><path class="cls-1" d="m73.08,113.75h7.08v1.32h-7.08v-1.32Zm0,3.54h7.08v1.32h-7.08v-1.32Z"/><path class="cls-1" d="m90.6,114.18c0-.86.4-1.83,1.24-2.74l.4-.43,1.06.93-.42.46c-.55.59-.82,1.2-.82,1.78,0,.55.35.83,1.02.83h.32v1.31h-.53c-1.48,0-2.26-.74-2.26-2.14Zm3.26,0c0-.86.4-1.83,1.24-2.74l.4-.43,1.06.93-.42.46c-.55.59-.82,1.2-.82,1.78,0,.55.35.83,1.02.83h.32v1.31h-.53c-1.48,0-2.26-.74-2.26-2.14Z"/><path class="cls-1" d="m98.48,116.16c0-3.27,1.64-5.16,4.52-5.16,1.39,0,2.46.46,2.94,1.27l-1.05,1.04c-.42-.64-1.11-1.01-1.88-1.01-1.83,0-3.02,1.37-3.02,3.78,0,2.63,1.15,3.95,3.41,3.95.69,0,1.36-.14,2.03-.42l.33,1.25c-.84.33-1.7.48-2.59.48-3.12,0-4.69-1.73-4.69-5.18Z"/><path class="cls-1" d="m110.11,119.89h1.84v1.32h-5.01v-1.32h1.67v-4.87h-1.39v-1.32h2.61l.25,1.93h.17c.08-1.39.76-2.07,2.07-2.07,1.54,0,2.21.84,2.21,2.82h-1.49c0-1.09-.31-1.54-1.03-1.54-1.27,0-1.9,1.13-1.9,3.14v1.91Z"/><path class="cls-1" d="m115.76,117.44c0-2.45,1.23-3.88,3.39-3.88,2.03,0,3.19,1.26,3.19,3.6,0,.35-.01.67-.04.96h-5.07c.26,1.25,1.21,1.91,2.72,1.91.62,0,1.22-.07,1.84-.2l.18,1.32c-.89.17-1.63.2-2.2.2-2.56,0-4.01-1.39-4.01-3.91Zm5.21-.47c0-1.35-.68-2.1-1.81-2.1s-1.88.76-2,2.1h3.81Z"/><path class="cls-1" d="m129.09,119.62h-.15c-.11,1.15-1.03,1.73-2.43,1.73-1.57,0-2.46-.79-2.46-2.17,0-1.59,1.23-2.46,3.4-2.46.54,0,1.01.04,1.42.12v-.35c0-1-.71-1.44-2.1-1.48l-1.8-.05.14-1.33,1.52.02c2.48.04,3.67,1.08,3.67,3.07v3.13l1.27.16v1.2l-2.41.07-.07-1.66Zm-1.67-1.7c-1.28,0-1.95.4-1.95,1.19,0,.66.47,1.03,1.29,1.03,1.4,0,2.11-.84,2.11-1.63v-.52c-.48-.07-.96-.07-1.44-.07Z"/><path class="cls-1" d="m134.25,118.37v-3.36h-1.88v-1.32h1.88v-2.27h1.5v2.27h3.41v1.32h-3.41v3.29c0,1.19.54,1.7,1.87,1.7.47,0,.98-.06,1.66-.14l.17,1.32c-.67.11-1.26.17-1.97.17-2.28,0-3.23-.89-3.23-2.97Z"/><path class="cls-1" d="m141.5,119.89h2.86v-4.87h-2.44v-1.32h3.94v6.19h2.31v1.32h-6.67v-1.32Zm2.51-8.43c0-.58.47-1.05,1.05-1.05s1.05.47,1.05,1.05-.47,1.05-1.05,1.05-1.05-.47-1.05-1.05Z"/><path class="cls-1" d="m149.43,113.7h1.6l2.02,6.23h.13l2.02-6.23h1.6l-2.68,7.51h-2l-2.68-7.51Z"/><path class="cls-1" d="m158.26,117.44c0-2.45,1.23-3.88,3.39-3.88,2.03,0,3.19,1.26,3.19,3.6,0,.35-.01.67-.04.96h-5.07c.26,1.25,1.21,1.91,2.72,1.91.62,0,1.22-.07,1.84-.2l.18,1.32c-.89.17-1.63.2-2.2.2-2.56,0-4.01-1.39-4.01-3.91Zm5.21-.47c0-1.35-.68-2.1-1.81-2.1s-1.88.76-2,2.1h3.81Z"/><path class="cls-1" d="m174.97,116.16c0-3.27,1.64-5.16,4.52-5.16,1.39,0,2.46.46,2.94,1.27l-1.05,1.04c-.42-.64-1.11-1.01-1.88-1.01-1.83,0-3.02,1.37-3.02,3.78,0,2.63,1.15,3.95,3.41,3.95.69,0,1.36-.14,2.03-.42l.33,1.25c-.84.33-1.7.48-2.59.48-3.12,0-4.69-1.73-4.69-5.18Z"/><path class="cls-1" d="m183.83,117.45c0-2.48,1.2-3.9,3.29-3.9s3.29,1.42,3.29,3.9-1.2,3.9-3.29,3.9-3.29-1.42-3.29-3.9Zm5.01,0c0-1.63-.62-2.55-1.73-2.55s-1.73.92-1.73,2.55.62,2.55,1.73,2.55,1.73-.92,1.73-2.55Z"/><path class="cls-1" d="m192.04,117.52c0-2.61,1.03-3.97,3-3.97,1.13,0,1.87.56,1.99,1.5h.14v-4.48h1.5v10.62l-1.35.07-.15-1.43h-.15c-.09.94-.84,1.5-1.99,1.5-1.97,0-3-1.31-3-3.82Zm5.13-.33c0-1.55-.62-2.37-1.8-2.37s-1.84.92-1.84,2.69c0,1.68.63,2.55,1.84,2.55s1.8-.81,1.8-2.37v-.51Z"/><path class="cls-1" d="m201,119.89h2.86v-4.87h-2.44v-1.32h3.94v6.19h2.31v1.32h-6.67v-1.32Zm2.51-8.43c0-.58.47-1.05,1.05-1.05s1.05.47,1.05,1.05-.47,1.05-1.05,1.05-1.05-.47-1.05-1.05Z"/><path class="cls-1" d="m214.17,116.32c0-.91-.5-1.42-1.35-1.42-1.18,0-1.77.69-1.77,2.08v4.22h-1.5v-7.51h1.36l.12,1.36h.16c.08-1.01.72-1.5,1.98-1.5,1.59,0,2.49,1.01,2.49,2.76v4.89h-1.5v-4.89Z"/><path class="cls-1" d="m218.08,123.22l2.41-.07c1.52-.04,2.17-.84,2.18-2.38v-.92h-.14c-.09.94-.84,1.5-1.99,1.5-1.97,0-3-1.31-3-3.82s1.03-3.97,3-3.97c1.17,0,1.93.56,2.06,1.5h.09l.12-1.36h1.36v6.84c0,2.68-1.16,3.9-3.82,3.98l-2.2.07-.07-1.37Zm2.79-8.39c-1.21,0-1.84.92-1.84,2.69,0,1.68.63,2.55,1.84,2.55s1.8-.81,1.8-2.37v-.51c0-1.55-.62-2.37-1.8-2.37Z"/><path class="cls-1" d="m226.68,115.52l.42-.46c.55-.59.82-1.2.82-1.78,0-.55-.35-.83-1.02-.83h-.32v-1.31h.53c1.49,0,2.26.74,2.26,2.14,0,.86-.4,1.83-1.24,2.74l-.4.43-1.06-.93Zm3.26,0l.42-.46c.55-.59.82-1.2.82-1.78,0-.55-.35-.83-1.02-.83h-.32v-1.31h.53c1.49,0,2.26.74,2.26,2.14,0,.86-.4,1.83-1.24,2.74l-.4.43-1.06-.93Z"/><path class="cls-1" d="m237.34,119.41h1.64l-.85,4.89h-1.36l.57-4.89Zm-.28-4.8c0-.58.47-1.05,1.05-1.05s1.05.47,1.05,1.05-.47,1.05-1.05,1.05-1.05-.47-1.05-1.05Z"/><path class="cls-1" d="m155.01,111.49c0-.58.47-1.05,1.05-1.05s1.05.47,1.05,1.05-.47,1.05-1.05,1.05-1.05-.47-1.05-1.05Z"/><path class="cls-1" d="m149.26,111.49c0-.58.47-1.05,1.05-1.05s1.05.47,1.05,1.05-.47,1.05-1.05,1.05-1.05-.47-1.05-1.05Z"/></svg>