<?xml version="1.0" encoding="UTF-8"?><svg id="Layer_1" xmlns="http://www.w3.org/2000/svg" viewBox="0 0 270 235"><defs><style>.cls-1{fill:#fff;}</style></defs><path d="m170.72,169.19h-28.83c0-.18.03-.37.03-.55-.01-8.69-.06-17.38.33-26.06.03-.7.11-1.39.17-2.1h.44c1.91,0,3.83-.01,5.74,0,1.5.01,3,0,4.49.1,1.42.09,2.87.17,4.08,1.12.35-1.84.7-3.68,1.04-5.48-.47.13-.92.34-1.39.39-1.45.14-2.91.29-4.37.3-8.09.02-16.18,0-24.27-.01-1.66,0-3.32-.05-4.97-.16-.79-.05-1.57-.31-2.36-.49-.23-.05-.3-.2-.24-.44.1-.41.16-.84.24-1.25.23-1.24.47-2.48.71-3.77-.89.44-1.81.6-2.74.63-1.76.06-3.52.1-5.28.1-6.79,0-13.58,0-20.36,0-2.25,0-4.5.03-6.74-.04-1.11-.03-2.21-.25-3.31-.39,0-21.74,0-43.47,0-65.21h13.54c-.12.13-.19.22-.27.29-2.29,2.31-4.23,4.89-5.79,7.76-2.26,4.16-3.58,8.61-4.04,13.32-.28,2.8-.25,5.59.1,8.38.42,3.41,1.28,6.71,2.62,9.88,2,4.73,4.91,8.82,8.8,12.19,3.92,3.4,8.42,5.72,13.35,7.23,4.98,1.53,10.09,2.16,15.29,2.25,4.97.09,9.85-.54,14.67-1.73,3.14-.78,6.22-1.74,9.19-3.06.3-.13.39-.29.38-.61-.08-5.96-.18-11.91-.19-17.87,0-2.44.2-4.88.34-7.32.03-.6.17-1.2.26-1.82h-7.47c.06.23.12.44.16.65.38,1.96.47,3.96.52,5.95.09,3.44.14,6.89.14,10.33,0,2.72-.1,5.44-.15,8.16,0,.27-.11.4-.35.52-4.48,2.25-9.24,3.44-14.22,3.77-3.28.22-6.54.03-9.77-.53-3.63-.63-7.1-1.76-10.34-3.54-6.5-3.57-11-8.92-13.75-15.76-1.6-3.96-2.43-8.1-2.72-12.36-.26-3.83-.08-7.62.78-11.37,1.28-5.58,3.87-10.44,7.95-14.48.17-.17.33-.24.57-.24,18.69,0,37.39,0,56.08,0,.12,0,.24,0,.45,0,0,.59,0,1.13,0,1.67.05,7.21.14,14.43.12,21.64-.01,4.46-.18,8.92-.34,13.37-.08,2.26-.26,4.51-.44,6.76-.12,1.47-.3,2.93-.46,4.46h28.71c0,.16.02.25.02.34,0,4.22,0,8.44,0,12.65,0,.15-.05.32-.12.45-.49.89-.96,1.79-1.5,2.65-2.78,4.47-5.58,8.92-8.38,13.38-.41.65-.82,1.3-1.24,1.99-.08-.12-.14-.2-.19-.29-.74-1.2-1.48-2.39-2.21-3.59-2.86-4.65-5.74-9.28-8.57-13.95-1.05-1.73-2.08-3.48-2.25-5.58h-8.8c.35.38.72.7,1.01,1.09,1.04,1.42,2.13,2.82,3.06,4.31,4.5,7.19,8.96,14.41,13.43,21.63.09.15.14.34.14.52,0,3.83.04,7.65,0,11.48-.03,2.24-.16,4.49-.27,6.73-.03.54-.14,1.07-.21,1.6Z"/><path class="cls-1" d="m170.72,169.19c.07-.53.18-1.07.21-1.6.11-2.24.24-4.49.27-6.73.04-3.83.01-7.65,0-11.48,0-.17-.05-.37-.14-.52-4.47-7.21-8.93-14.43-13.43-21.63-.93-1.49-2.02-2.89-3.06-4.31-.28-.39-.65-.71-1.01-1.09h8.8c.17,2.09,1.2,3.85,2.25,5.58,2.83,4.67,5.71,9.3,8.57,13.95.74,1.2,1.47,2.39,2.21,3.59.05.09.11.17.19.29.43-.68.84-1.34,1.24-1.99,2.79-4.46,5.59-8.91,8.38-13.38.54-.86,1.01-1.76,1.5-2.65.07-.13.12-.3.12-.45,0-4.22,0-8.44,0-12.65,0-.09-.01-.18-.02-.34h-28.71c.16-1.53.35-2.99.46-4.46.18-2.25.36-4.5.44-6.76.16-4.46.33-8.91.34-13.37.02-7.21-.07-14.43-.12-21.64,0-.54,0-1.08,0-1.67-.21,0-.33,0-.45,0-18.69,0-37.39,0-56.08,0-.24,0-.4.08-.57.24-4.08,4.04-6.67,8.9-7.95,14.48-.86,3.75-1.04,7.54-.78,11.37.29,4.26,1.12,8.39,2.72,12.36,2.76,6.84,7.25,12.18,13.75,15.76,3.24,1.78,6.7,2.91,10.34,3.54,3.24.56,6.5.75,9.77.53,4.98-.33,9.74-1.52,14.22-3.77.24-.12.34-.26.35-.52.05-2.72.15-5.44.15-8.16,0-3.45-.05-6.89-.14-10.33-.05-1.99-.14-3.98-.52-5.95-.04-.21-.1-.42-.16-.65h7.47c-.09.62-.23,1.21-.26,1.82-.14,2.44-.34,4.88-.34,7.32,0,5.96.11,11.91.19,17.87,0,.32-.08.48-.38.61-2.97,1.31-6.05,2.28-9.19,3.06-4.82,1.19-9.7,1.82-14.67,1.73-5.19-.09-10.31-.72-15.29-2.25-4.93-1.52-9.44-3.84-13.35-7.23-3.89-3.37-6.79-7.46-8.8-12.19-1.34-3.17-2.2-6.47-2.62-9.88-.34-2.79-.37-5.58-.1-8.38.46-4.71,1.78-9.16,4.04-13.32,1.56-2.86,3.49-5.44,5.79-7.76.08-.08.15-.16.27-.29h-13.54s.02-.07.03-.07c.09,0,.18,0,.28,0h103.48v.54c0,34.18,0,68.35,0,102.53,0,.1-.04.21-.07.31v-35.32c-.09.03-.12.07-.15.11-3.14,5-6.27,10.01-9.4,15.02-.07.12-.11.28-.11.42.04,5.37.06,10.74.14,16.11.02,1.22.25,2.45.39,3.67h-6.98Zm16.11-59.43c0-.21,0-.35,0-.49,0-7.29,0-14.59,0-21.88,0-.35-.1-.49-.44-.58-2.04-.47-4.12-.63-6.2-.65-4.5-.05-9.01-.04-13.51-.05-.12,0-.24.01-.4.02.04,8-.12,15.98.21,23.98h.46c4.11,0,8.23.01,12.34,0,1.55,0,3.11-.06,4.66-.12.95-.04,1.9-.14,2.88-.22Zm-20.29-43.86c-.11,5.55-.21,11.06-.32,16.62.24,0,.38,0,.53,0,3.54,0,7.07,0,10.61,0,2.42,0,4.84-.01,7.26-.04.73,0,1.46-.09,2.18-.14v-16.44h-20.26Z"/><path d="m135.38,169.19h-30.22c-.01-.24-.04-.48-.04-.72-.02-5.93-.07-11.87-.03-17.8.03-4.39.18-8.78.3-13.17.02-.79.12-1.58.19-2.37.15,0,.24-.02.33-.02,2.74,0,5.49-.01,8.23,0,1.53.01,3.07.06,4.57.42.51.12.99.36,1.46.58.25.12.35.33.29.66-.23,1.07-.41,2.15-.61,3.22-.11.57-.21,1.15-.32,1.74.07-.01.11,0,.14-.02,1.53-.82,3.2-1.12,4.9-1.15,3.38-.07,6.75-.06,10.13-.08.22,0,.27.08.29.28.11,2,.3,4,.32,6,.07,6.99.09,13.99.12,20.98,0,.48-.02.97-.03,1.45Z"/><path class="cls-1" d="m135.38,169.19c0-.48.03-.97.03-1.45-.03-6.99-.05-13.99-.12-20.98-.02-2-.21-4-.32-6-.01-.2-.07-.28-.29-.28-3.38.03-6.75.02-10.13.08-1.7.03-3.37.33-4.9,1.15-.03.01-.06.01-.14.02.11-.59.21-1.17.32-1.74.2-1.08.38-2.15.61-3.22.07-.33-.03-.54-.29-.66-.48-.22-.96-.46-1.46-.58-1.5-.36-3.03-.41-4.57-.42-2.74-.02-5.49,0-8.23,0-.09,0-.18.01-.33.02-.06.8-.17,1.58-.19,2.37-.11,4.39-.27,8.78-.3,13.17-.04,5.93.02,11.87.03,17.8,0,.24.02.48.04.72h-6.64c0-1.31.02-2.63.01-3.94-.03-8.26-.04-16.52-.1-24.79-.01-1.65-.18-3.29-.27-4.93-.02-.32-.12-.44-.48-.44-2.89.02-5.79,0-8.68.02-1.39.01-2.78.1-4.17.2-.58.04-1.16.18-1.73.27,0-1.5,0-3,0-4.49,1.1.13,2.21.35,3.31.39,2.25.07,4.49.03,6.74.04,6.79,0,13.58.01,20.36,0,1.76,0,3.52-.04,5.28-.1.93-.03,1.85-.19,2.74-.63-.24,1.29-.48,2.53-.71,3.77-.08.42-.15.84-.24,1.25-.06.24.01.39.24.44.78.17,1.56.43,2.36.49,1.65.11,3.31.16,4.97.16,8.09.02,16.18.03,24.27.01,1.46,0,2.92-.16,4.37-.3.47-.04.92-.25,1.39-.39-.34,1.8-.69,3.64-1.04,5.48-1.2-.95-2.65-1.03-4.08-1.12-1.49-.1-2.99-.09-4.49-.1-1.91-.01-3.83,0-5.74,0h-.44c-.06.71-.14,1.41-.17,2.1-.39,8.68-.34,17.37-.33,26.06,0,.18-.02.37-.03.55h-6.5Z"/><path d="m83.1,135.58c.58-.09,1.15-.23,1.73-.27,1.39-.09,2.78-.18,4.17-.2,2.89-.03,5.79,0,8.68-.02.36,0,.46.12.48.44.09,1.64.26,3.29.27,4.93.06,8.26.07,16.52.1,24.79,0,1.31,0,2.63-.01,3.94h-15.42c0-11.2,0-22.4,0-33.61Z"/><path d="m177.7,169.19c-.14-1.22-.37-2.44-.39-3.67-.08-5.37-.11-10.74-.14-16.11,0-.14.04-.3.11-.42,3.13-5.01,6.27-10.01,9.4-15.02.02-.04.05-.07.15-.11v35.32h-9.13Z"/><path d="m186.83,109.76c-.98.08-1.93.18-2.88.22-1.55.07-3.11.12-4.66.12-4.11.02-8.23,0-12.34,0h-.46c-.32-8-.17-15.97-.21-23.98.16,0,.28-.02.4-.02,4.5.01,9.01,0,13.51.05,2.08.02,4.16.18,6.2.65.35.08.44.22.44.58-.01,7.29,0,14.59,0,21.88,0,.14,0,.28,0,.49Z"/><path d="m166.54,65.89h20.26v16.44c-.72.05-1.45.13-2.18.14-2.42.03-4.84.04-7.26.04-3.54,0-7.07,0-10.61,0-.15,0-.29,0-.53,0,.11-5.56.21-11.07.32-16.62Z"/></svg>