<?xml version="1.0" encoding="UTF-8"?><svg id="Layer_1" xmlns="http://www.w3.org/2000/svg" viewBox="0 0 270 235"><defs><style>.cls-1{fill:#1d1d1b;}</style></defs><path class="cls-1" d="m168.94,124.78c6.37,0,12.74,0,19.11,0,.97,0,.97,0,.97.98,0,8.32,0,16.64,0,24.96,0,.17,0,.35,0,.52,0,.59-.28.88-.88.85-.91-.04-1.82-.09-2.73-.09-3.03-.01-6.07-.02-9.1,0-.55,0-.7-.16-.69-.7.03-2.25-.06-4.51.05-6.76.16-3.34,0-6.67.14-10,.06-1.65.05-3.29.1-4.94.02-.6-.19-.79-.79-.78-4.36.02-8.71.02-13.07,0-.67,0-.84.22-.84.86.02,7.09.02,14.17.02,21.26,0,1.04,0,1.04-1.04,1.05-3.42.03-6.84.07-10.27.09-1.09,0-1.09,0-1.09-1.12,0-8.52,0-17.03-.02-25.55,0-.56.22-.65.69-.65,2.47.01,4.94,0,7.41,0,4.01,0,8.02,0,12.03,0Z"/><path class="cls-1" d="m168.85,108.94c-6.33,0-12.65,0-18.98,0-1.02,0-1.02,0-1.02-.99,0-8.02,0-16.03,0-24.05,0-.99,0-.99.96-.99,3.81,0,7.63,0,11.44,0,.87,0,.89.02.89.93,0,6.87,0,13.74,0,20.61q0,.98.97.98c3.75,0,7.5,0,11.25,0,.9,0,.91-.01.91-.9,0-6.87,0-13.74,0-20.61,0-1,0-1,1.01-1,3.92,0,7.84,0,11.77,0,.91,0,.9,0,.9.95,0,8,0,15.99,0,23.99q0,1.1-1.1,1.1c-6.33,0-12.65,0-18.98,0Z"/><path class="cls-1" d="m101.65,95.89c0-4.01,0-8.01,0-12.02,0-.95,0-.96.92-.96,5.31,0,10.61.01,15.92-.01.64,0,.91.22,1.09.82,1.34,4.59,2.71,9.18,4.07,13.77,1.05,3.55,2.08,7.11,3.12,10.66.23.77.2.8-.61.8-7.86,0-15.73,0-23.59,0-.91,0-.92-.01-.92-.96,0-4.03,0-8.06,0-12.09Z"/><path class="cls-1" d="m141.98,138.46c0,4.25,0,8.49,0,12.74,0,.86-.02.88-.87.89-3.77,0-7.54-.01-11.31.01-.65,0-.96-.23-1.15-.85-1.56-5.1-3.15-10.18-4.73-15.27-1.08-3.48-2.16-6.95-3.24-10.43-.21-.69-.18-.77.53-.77,6.67,0,13.35,0,20.02-.02.64,0,.75.27.75.82-.01,4.29,0,8.58,0,12.87Z"/><path class="cls-1" d="m101.65,138.42c0-4.25,0-8.5,0-12.74,0-.86.03-.89.86-.89,3.88,0,7.76,0,11.64-.01.56,0,.77.17.77.74-.01,8.58-.01,17.16,0,25.75,0,.57-.21.75-.77.75-3.99-.01-7.97-.01-11.96,0-.6,0-.54-.35-.54-.72,0-3.16,0-6.33,0-9.49,0-1.13,0-2.25,0-3.38Z"/><path class="cls-1" d="m94.89,138.39c0,4.16,0,8.32,0,12.48q0,1.13-1.1,1.13c-3.45,0-6.89,0-10.34,0-.9,0-.92-.02-.92-.9,0-8.47,0-16.95,0-25.42,0-.86.03-.89.86-.89,3.53,0,7.06,0,10.6,0,.88,0,.9.02.9.92,0,4.23,0,8.45,0,12.68Z"/><path class="cls-1" d="m82.53,95.89c0-4.03,0-8.06,0-12.09,0-.86.02-.89.86-.89,3.55,0,7.11,0,10.66,0,.79,0,.83.04.83.86,0,8.1,0,16.21,0,24.31,0,.82-.03.85-.83.85-3.55,0-7.11,0-10.66,0-.84,0-.86-.03-.86-.89,0-4.05,0-8.1,0-12.16Z"/><path class="cls-1" d="m141.97,95.92c0,4.03,0,8.06,0,12.09,0,.93,0,.93-.95.93-3.16,0-6.33,0-9.49,0-.86,0-.87-.03-.9-.86-.14-3.77-.19-7.53-.27-11.3-.09-3.9-.23-7.79-.25-11.69,0-.52-.06-1.04-.1-1.55-.03-.43.15-.63.6-.63,3.58,0,7.15.01,10.73,0,.61,0,.64.34.64.8,0,4.07,0,8.15,0,12.22Z"/><path class="cls-1" d="m153.64,115.88c-.49.85-.98,1.7-1.47,2.56-.37.64-.73,1.28-1.1,1.92-.41.7-1.5.7-1.9,0-.75-1.32-1.5-2.64-2.25-3.95-.11-.19-.17-.44-.52-.59,0,.87,0,1.68,0,2.49,0,.65.03,1.3-.01,1.95-.06.89-.78.5-1.21.51-.41.01-1.13.34-1.13-.52-.03-2.25,0-4.51-.01-6.76,0-.36.18-.51.52-.51.84,0,1.69,0,2.53,0,.46,0,.62.33.8.66.67,1.21,1.36,2.41,2.01,3.64.25.48.41.39.63,0,.68-1.23,1.39-2.45,2.04-3.7.24-.45.54-.62,1.03-.6.65.03,1.3.01,1.95,0,.51,0,.74.2.74.74-.02,2.12-.02,4.25,0,6.37,0,.54-.21.75-.73.71-.17-.02-.35,0-.52,0q-1.24.08-1.24-1.2c0-1.22,0-2.45,0-3.67-.05-.02-.11-.03-.16-.05Z"/><path class="cls-1" d="m64.73,116.91c0-1.08.01-2.17,0-3.25,0-.5.21-.72.7-.69.02,0,.04,0,.06,0q1.97-.06,3.39,1.34c1.03,1.02,2.06,2.04,3.09,3.06.12.11.22.33.42.24.19-.08.12-.31.12-.47,0-1.13.03-2.25,0-3.38-.02-.58.17-.82.78-.81,1.93.04,1.7-.2,1.72,1.7,0,1.78-.01,3.55,0,5.33,0,.56-.17.73-.76.83-1.33.24-2.22-.34-3.07-1.22-1.1-1.14-2.24-2.23-3.37-3.34-.13-.13-.26-.36-.48-.25-.18.09-.1.31-.1.48,0,1.24-.02,2.47,0,3.71,0,.5-.18.7-.68.7-2.14-.03-1.78.24-1.81-1.7-.01-.76,0-1.52,0-2.28h0Z"/><path class="cls-1" d="m81.11,112.82c1.23.09,2.43.07,3.56.52.7.28,1.22.72,1.42,1.48.11.42,0,.63-.45.63-.54,0-1.08,0-1.62,0-.17,0-.34-.03-.48-.16-1.2-1.15-2.61-.74-3.98-.53-.19.03-.35.19-.36.41,0,.23.14.35.32.44.38.18.79.22,1.2.21,1.26-.02,2.52.01,3.75.28,1.57.34,2.27,1.49,1.84,2.98-.19.65-.63,1.08-1.22,1.36-.59.28-1.23.44-1.88.45-1.14.03-2.29.15-3.43,0-.85-.11-1.66-.31-2.37-.81-.52-.36-.75-.88-.85-1.48-.06-.37.09-.58.49-.58.52,0,1.04,0,1.56,0,.26,0,.47.09.58.34.19.45.58.64,1.01.73.94.19,1.9.18,2.84,0,.34-.06.74-.2.73-.62-.01-.47-.42-.61-.83-.68-.9-.16-1.81-.14-2.72-.15-.9,0-1.77-.14-2.57-.58-.72-.39-1.07-1.01-1.05-1.81.02-.88.43-1.53,1.25-1.89,1.06-.47,2.19-.46,3.27-.55Z"/><path class="cls-1" d="m51.31,116.6c0-2.9.01-5.8-.01-8.7,0-.49.1-.7.64-.68,1.17.04,2.34.03,3.51,0,.5,0,.7.18.69.68-.01,1.66.06,1.41-1.37,1.42-1.1.01-1.1,0-1.1,1.11,0,4.2,0,8.4,0,12.6q0,.96.98.96s.04,0,.06,0c1.49,0,1.61.15,1.42,1.64-.04.31-.17.47-.49.47-1.28,0-2.55,0-3.83,0-.52,0-.49-.38-.49-.73,0-2.92,0-5.85,0-8.77h0Z"/><path class="cls-1" d="m218.7,116.67c0,2.84,0,5.67,0,8.51,0,.92,0,.93-.95.93-1.06,0-2.12-.02-3.18,0-.51.01-.68-.18-.69-.69-.03-1.43-.04-1.43,1.37-1.43.15,0,.3-.01.45,0,.47.04.67-.16.65-.64-.02-.82,0-1.65,0-2.47,0-3.57-.01-7.15.01-10.72,0-.65-.19-.94-.85-.84-.08.01-.17,0-.26,0-1.39,0-1.62-.29-1.36-1.69.06-.29.21-.41.49-.41,1.28,0,2.56,0,3.83,0,.53,0,.49.38.49.73,0,2.9,0,5.8,0,8.7Z"/><path class="cls-1" d="m127.8,117.57c0-1.18,0-2.37,0-3.55,0-1.03.02-1.05,1.06-1.05,1.62,0,1.42-.11,1.42,1.43,0,1.84-.02,3.68.01,5.52.01.63-.17.83-.83.89-1.2.1-2.08-.27-2.89-1.18-1.2-1.33-2.5-2.56-3.97-3.83,0,1.31,0,2.51,0,3.72,0,1.45.17,1.37-1.36,1.36-1.12,0-1.12,0-1.12-1.11,0-2.01.01-4.03,0-6.04,0-.55.17-.72.74-.78,1.41-.16,2.49.28,3.43,1.35,1.03,1.19,2.18,2.27,3.28,3.4l.25-.14Z"/><path class="cls-1" d="m106.66,116.93c1.28.47,1.31,1.5,1.24,2.55-.03.42.27.95-.04,1.23-.29.27-.83.07-1.26.07-1.18.02-1.18.01-1.19-1.14-.01-1.12-.32-1.5-1.44-1.57-.93-.06-1.86-.01-2.79-.02-.42,0-.57.23-.56.62,0,.52.02,1.04,0,1.56-.03.64-.15.67-1.72.66-.48,0-.78-.09-.77-.67.02-2.19.01-4.37,0-6.56,0-.36.05-.69.5-.67,2.55.07,5.11-.27,7.64.24,1.45.29,2.09,1.81,1.3,2.94-.22.31-.57.44-.92.76Zm-3.75-2.12c-.69,0-1.21,0-1.73,0-.37,0-.57.17-.55.55.02.37-.14.89.42.93,1.18.07,2.37.12,3.55-.03.39-.05.64-.28.64-.68,0-.41-.26-.61-.64-.69-.62-.14-1.25-.04-1.7-.07Z"/><path class="cls-1" d="m199.21,116.91c1.69.79,1.18,2.28,1.28,3.57.02.23-.14.3-.34.3-.58,0-1.17,0-1.75.02-.32,0-.4-.19-.41-.46-.02-.43,0-.86-.09-1.29-.11-.47-.38-.76-.86-.86-1.14-.25-2.29-.1-3.43-.12-.35,0-.41.26-.41.54,0,.54-.01,1.08,0,1.62,0,.38-.16.56-.55.55-.5,0-1,0-1.49.01-.35.01-.45-.15-.45-.47,0-2.25,0-4.51,0-6.76,0-.41.17-.6.58-.59,2.27.05,4.55-.14,6.81.12.78.09,1.57.26,2.03.99.63,1,.34,1.9-.92,2.83Zm-3.79-.59c.48-.03,1.11.08,1.73-.07.37-.09.65-.3.64-.71,0-.37-.27-.57-.63-.64-.17-.04-.34-.08-.51-.09-.97-.01-1.95,0-2.92-.01-.57,0-.53.38-.53.75,0,.37-.05.78.52.77.52,0,1.04,0,1.7,0Z"/><path class="cls-1" d="m184.76,120.88c-1.15,0-2.3-.01-3.45,0-.54,0-.76-.17-.76-.75,0-2.19.1-4.38-.06-6.56-.04-.54.33-.59.72-.6,1.24,0,2.47,0,3.71,0,1.06,0,2.12.01,3.19,0,.49,0,.74.17.69.68-.02.17-.01.35,0,.52.03.48-.2.64-.66.64-1.47-.01-2.95,0-4.42,0-.4,0-.67.09-.67.57,0,.48.25.58.66.57,1.39,0,2.77,0,4.16,0,.77,0,.8.04.8.89,0,.91-.02.94-.81.94-1.37,0-2.73,0-4.1,0-.42,0-.72.07-.71.59,0,.53.32.58.73.58,1.45,0,2.9.02,4.36-.01.58-.01.86.17.79.78-.02.17-.02.35,0,.52.04.48-.19.66-.65.65-1.17-.01-2.34,0-3.51,0Z"/><path class="cls-1" d="m162.38,120.83c-1.19,0-2.38-.02-3.57,0-.43,0-.59-.16-.59-.56,0-2.25,0-4.5,0-6.76,0-.38.17-.55.55-.55,2.38,0,4.76,0,7.15,0,.44,0,.61.2.63.63.06,1.15.03,1.2-1.14,1.2-1.32,0-2.64,0-3.96,0-.4,0-.73.04-.74.57-.01.55.33.57.73.57,1.43,0,2.86.03,4.29-.01.76-.02.7.44.7.93,0,.51.03.95-.71.92-1.43-.04-2.86,0-4.29-.01-.41,0-.72.04-.72.58,0,.53.29.6.71.59,1.49,0,2.99,0,4.48,0,.73,0,.76.09.79.99.02.58-.12.88-.79.86-1.17-.04-2.34-.01-3.51-.01,0,.02,0,.03,0,.05Z"/><path class="cls-1" d="m206.22,120.84c-1.19,0-2.38-.01-3.57,0-.34,0-.48-.13-.48-.45,0-2.3,0-4.59,0-6.89,0-.49.34-.54.71-.54,1.56,0,3.12,0,4.68,0,.76,0,1.52.01,2.27,0,.77-.02.64.53.66.99.02.46,0,.86-.65.85-1.49-.03-2.99,0-4.48,0-.41,0-.72.04-.72.58,0,.56.35.56.74.56,1.34,0,2.68,0,4.03,0,.93,0,.95.02.95.94,0,.89-.01.9-.98.9-1.34,0-2.68,0-4.03,0-.42,0-.71.06-.71.59,0,.54.31.58.72.58,1.49,0,2.99.01,4.48,0,.56,0,.83.16.69.76-.03.15-.03.3-.02.45.03.48-.2.65-.66.65-1.21-.02-2.43,0-3.64,0,0,.02,0,.03,0,.05Z"/><path class="cls-1" d="m92.06,120.8c-1.17,0-2.34-.02-3.51.01-.46.01-.56-.16-.56-.56.01-2.21.01-4.42,0-6.63,0-.48.2-.65.66-.65,2.32.01,4.64.02,6.96,0,.79,0,.69.51.71,1.01.02.53-.08.86-.74.84-1.45-.04-2.9-.01-4.36-.01-.38,0-.74-.03-.76.54-.01.59.33.61.76.6,1.41,0,2.82.03,4.23-.02.74-.02.74.39.74.91,0,.53.02.98-.76.95-1.41-.05-2.82-.01-4.23-.01-.39,0-.73,0-.74.56-.01.58.32.61.76.61,1.45,0,2.91.03,4.36-.02.75-.02.77.39.77.94,0,.58-.06.96-.79.93-1.17-.05-2.34-.01-3.51-.01,0,0,0,0,0,0Z"/><path class="cls-1" d="m168.37,116.93c0-1.08,0-2.17,0-3.25,0-.48.17-.72.68-.71,2.14.01,1.77-.15,1.81,1.74,0,.19,0,.39,0,.58,0,.34.13.53.5.53,1.39,0,2.77,0,4.16,0,.4,0,.53-.22.52-.58,0-.54.01-1.08,0-1.62,0-.43.18-.64.62-.64,2.33,0,1.94-.25,1.97,1.82.02,1.73-.01,3.47.01,5.2,0,.57-.16.83-.78.81-.43-.01-.86.03-1.29.03-.42,0-.53-.19-.53-.55,0-.63-.01-1.26,0-1.88.01-.44-.17-.62-.62-.62-1.32.01-2.64.02-3.97,0-.51,0-.62.23-.58.69.05.58.04,1.17.07,1.75.02.46-.14.68-.63.67-2.35-.05-1.91.32-1.96-1.88-.01-.69,0-1.39,0-2.08h0Z"/><path class="cls-1" d="m137.03,112.97c1.22-.32,1.85.29,2.37,1.33.95,1.92,2,3.79,3.02,5.67.39.73.35.83-.47.89-.26.02-.52-.01-.78.02-.72.1-1.22-.13-1.45-.86-.13-.42-.43-.59-.89-.58-1.17.02-2.34.01-3.51,0-.38,0-.7.08-.82.48-.27.94-.96,1.06-1.78.95-.21-.03-.43-.07-.64-.08-.47-.02-.48-.24-.3-.59.55-1.06,1.08-2.12,1.62-3.18.53-1.04,1.11-2.06,1.57-3.13.32-.72.75-1.06,1.54-.93.17.03.35,0,.52,0Zm.06,4.66q1.37,0,.77-1.19s-.03-.08-.06-.12c-.27-.42-.34-1.2-.8-1.21-.38,0-.51.77-.73,1.2-.71,1.36-.79,1.32.81,1.32Z"/><path class="cls-1" d="m113.83,112.97c1.28,0,2.55.02,3.83,0,.58-.01.86.18.79.79-.02.19-.01.39,0,.58.02.41-.17.59-.58.58-.69,0-1.39.01-2.08,0-.53-.01-.7.17-.68.73.06,1.56.04,3.12.05,4.67,0,.37-.15.57-.54.56-2.51-.03-2.01.33-2.05-1.84-.02-1.15-.02-2.29,0-3.44,0-.5-.17-.71-.68-.69-.69.02-1.39,0-2.08,0-.43,0-.61-.16-.63-.61-.05-1.34-.07-1.34,1.26-1.34,1.13,0,2.25,0,3.38,0Z"/><path class="cls-1" d="m62.79,116.94c0,1.1,0,2.21,0,3.31,0,.43-.15.64-.6.64-2.25-.01-1.87.2-1.89-1.76-.02-1.79,0-3.59,0-5.38,0-.55.19-.78.75-.78,2.07.03,1.72-.19,1.74,1.7.01.76,0,1.51,0,2.27Z"/></svg>