<?xml version="1.0" encoding="UTF-8"?><svg id="Layer_1" xmlns="http://www.w3.org/2000/svg" viewBox="0 0 270 235"><defs><style>.cls-1{fill:#1d1d1b;}</style></defs><path class="cls-1" d="m75.08,109.64l8.99-9.22h4.65l-10.45,10.46,10.51,12.65h-4.67l-8.32-10.28-.72.72v9.56h-3.49v-23.11h3.49v9.22Z"/><path class="cls-1" d="m89.43,111.87c0-3.25,1.19-6.05,3.58-8.38,2.37-2.33,5.23-3.5,8.56-3.5s6.12,1.18,8.47,3.53c2.36,2.35,3.55,5.18,3.55,8.49s-1.19,6.14-3.56,8.46c-2.38,2.32-5.26,3.49-8.63,3.49-2.98,0-5.66-1.03-8.04-3.1-2.61-2.28-3.92-5.28-3.92-8.98Zm3.52.05c0,2.55.86,4.65,2.57,6.3,1.71,1.65,3.68,2.47,5.91,2.47,2.42,0,4.47-.84,6.14-2.51,1.67-1.7,2.5-3.76,2.5-6.2s-.82-4.53-2.47-6.2c-1.64-1.68-3.66-2.51-6.08-2.51s-4.43.84-6.09,2.51c-1.66,1.66-2.48,3.7-2.48,6.14Z"/><path class="cls-1" d="m125.8,113.68l7.15,9.85h-4.26l-6.6-9.46h-.63v9.46h-3.49v-23.11h4.09c3.05,0,5.26.57,6.61,1.72,1.5,1.28,2.24,2.96,2.24,5.06,0,1.64-.47,3.04-1.41,4.22-.94,1.18-2.17,1.93-3.71,2.26Zm-4.34-2.65h1.11c3.3,0,4.95-1.26,4.95-3.79,0-2.36-1.61-3.55-4.82-3.55h-1.24v7.33Z"/><path class="cls-1" d="m149.17,103.7h-9.26v5.55h8.99v3.28h-8.99v7.72h9.26v3.28h-12.75v-23.11h12.75v3.28Z"/><path class="cls-1" d="m167.33,117.92h-9.89l-2.57,5.61h-3.76l11.43-24.56,11.03,24.56h-3.82l-2.42-5.61Zm-1.42-3.28l-3.43-7.86-3.59,7.86h7.02Z"/><path class="cls-1" d="m176.46,123.53v-24.68l16.85,17.63v-16.06h3.49v24.51l-16.85-17.58v16.18h-3.49Z"/><path class="cls-1" d="m83.13,133.54h-8.05v5.55h7.77v3.28h-7.77v11h-3.49v-23.11h11.54v3.28Z"/><path class="cls-1" d="m99.92,133.54h-9.26v5.55h8.99v3.28h-8.99v7.72h9.26v3.28h-12.75v-23.11h12.75v3.28Z"/><path class="cls-1" d="m117.57,133.71l-2.83,1.68c-.53-.92-1.03-1.52-1.51-1.8-.5-.32-1.14-.48-1.93-.48-.97,0-1.77.27-2.41.82-.64.54-.96,1.22-.96,2.04,0,1.13.84,2.04,2.51,2.72l2.3.94c1.88.76,3.25,1.68,4.12,2.78.87,1.09,1.3,2.43,1.3,4.02,0,2.12-.71,3.88-2.13,5.27-1.43,1.4-3.2,2.1-5.31,2.1-2.01,0-3.66-.59-4.97-1.78-1.29-1.19-2.09-2.86-2.41-5.01l3.53-.78c.16,1.36.44,2.3.84,2.81.72,1,1.77,1.5,3.14,1.5,1.09,0,1.99-.36,2.71-1.09.72-.73,1.08-1.65,1.08-2.77,0-.45-.06-.86-.19-1.23s-.32-.72-.58-1.03c-.26-.32-.61-.61-1.02-.88s-.92-.54-1.5-.79l-2.23-.93c-3.16-1.34-4.74-3.29-4.74-5.87,0-1.74.66-3.19,1.99-4.36,1.33-1.18,2.98-1.77,4.95-1.77,2.66,0,4.74,1.3,6.24,3.89Z"/><path class="cls-1" d="m129.18,133.54v19.83h-3.49v-19.83h-5.31v-3.28h14.1v3.28h-5.3Z"/><path class="cls-1" d="m141.08,130.26v23.11h-3.49v-23.11h3.49Z"/><path class="cls-1" d="m147.8,130.26l6.39,16.01,6.48-16.01h3.82l-10.37,24.84-10.13-24.84h3.82Z"/><path class="cls-1" d="m179,147.76h-9.89l-2.57,5.61h-3.76l11.43-24.56,11.03,24.56h-3.82l-2.42-5.61Zm-1.42-3.28l-3.43-7.86-3.59,7.86h7.02Z"/><path class="cls-1" d="m191.61,130.26v19.83h6.79v3.28h-10.28v-23.11h3.49Z"/><path class="cls-1" d="m136.73,85.16c-.87-1.07-1.96-1.6-3.24-1.6-.57,0-1.09.1-1.57.31-.48.21-.9.49-1.24.84-.35.35-.62.78-.82,1.26-.2.49-.3,1.02-.3,1.58s.1,1.11.3,1.6.48.91.83,1.27c.35.36.77.64,1.24.85.48.21.99.31,1.54.31,1.21,0,2.3-.51,3.26-1.54v4.48l-.39.13c-.58.21-1.12.36-1.62.45-.5.1-1,.14-1.49.14-1,0-1.97-.19-2.88-.57-.92-.38-1.73-.91-2.43-1.6-.7-.69-1.26-1.5-1.69-2.45s-.64-1.98-.64-3.1.21-2.14.63-3.08c.42-.93.98-1.74,1.68-2.41s1.51-1.2,2.44-1.58c.93-.38,1.9-.57,2.91-.57.58,0,1.15.06,1.71.18.56.12,1.15.31,1.77.57v4.52Z"/><path class="cls-1" d="m146.91,84.02c-.41-.33-.82-.58-1.23-.74-.41-.16-.81-.24-1.2-.24-.49,0-.89.12-1.2.35-.31.23-.46.53-.46.91,0,.26.08.47.23.64.15.17.36.31.61.43s.53.23.85.32c.32.09.63.19.94.29,1.23.41,2.14.96,2.71,1.65.57.69.86,1.59.86,2.69,0,.75-.13,1.42-.38,2.03-.25.61-.62,1.12-1.1,1.55-.48.43-1.07.77-1.78,1s-1.5.36-2.38.36c-1.84,0-3.54-.55-5.11-1.64l1.62-3.05c.57.5,1.13.87,1.68,1.12.55.24,1.1.37,1.64.37.62,0,1.08-.14,1.38-.42.3-.28.45-.6.45-.96,0-.22-.04-.41-.12-.57-.08-.16-.21-.31-.39-.44-.18-.14-.41-.26-.7-.38-.29-.12-.64-.24-1.05-.39-.49-.15-.97-.32-1.44-.51-.47-.19-.89-.43-1.25-.74-.37-.31-.66-.7-.89-1.17-.22-.47-.34-1.06-.34-1.79s.12-1.37.36-1.96c.24-.59.57-1.09,1-1.51.43-.42.96-.74,1.58-.97.62-.23,1.32-.35,2.09-.35.72,0,1.47.1,2.26.3.78.2,1.54.49,2.26.88l-1.51,2.95Z"/><path class="cls-1" d="m154.98,80.3v7.91c0,.42.02.86.05,1.3.03.44.13.85.29,1.21.16.36.42.65.76.88s.84.34,1.47.34,1.12-.11,1.46-.34.59-.52.76-.88c.17-.36.27-.76.3-1.21.03-.44.05-.88.05-1.3v-7.91h3.76v8.43c0,2.26-.52,3.92-1.55,4.96-1.04,1.04-2.63,1.56-4.78,1.56s-3.74-.52-4.79-1.56c-1.04-1.04-1.56-2.69-1.56-4.96v-8.43h3.78Z"/><path class="cls-1" d="m174.72,84.02c-.41-.33-.82-.58-1.23-.74-.41-.16-.81-.24-1.2-.24-.49,0-.89.12-1.2.35-.31.23-.46.53-.46.91,0,.26.08.47.23.64.15.17.36.31.61.43s.53.23.85.32c.32.09.63.19.94.29,1.23.41,2.14.96,2.71,1.65.57.69.86,1.59.86,2.69,0,.75-.13,1.42-.38,2.03-.25.61-.62,1.12-1.1,1.55-.48.43-1.07.77-1.78,1s-1.5.36-2.38.36c-1.84,0-3.54-.55-5.11-1.64l1.62-3.05c.57.5,1.13.87,1.68,1.12.55.24,1.1.37,1.64.37.62,0,1.08-.14,1.38-.42.3-.28.45-.6.45-.96,0-.22-.04-.41-.12-.57-.08-.16-.21-.31-.39-.44-.18-.14-.41-.26-.7-.38-.29-.12-.64-.24-1.05-.39-.49-.15-.97-.32-1.44-.51-.47-.19-.89-.43-1.25-.74-.37-.31-.66-.7-.89-1.17-.22-.47-.34-1.06-.34-1.79s.12-1.37.36-1.96c.24-.59.57-1.09,1-1.51.43-.42.96-.74,1.58-.97.62-.23,1.32-.35,2.09-.35.72,0,1.47.1,2.26.3.78.2,1.54.49,2.26.88l-1.51,2.95Z"/><path class="cls-1" d="m179,80.3h5.63c1.34,0,2.35.32,3.05.96.69.64,1.04,1.57,1.04,2.78,0,.73-.13,1.34-.4,1.82s-.67.89-1.21,1.23c.54.1,1,.26,1.38.47.38.21.69.47.93.78.24.31.41.66.51,1.04.1.39.15.8.15,1.24,0,.68-.12,1.29-.36,1.81-.24.53-.57.97-1,1.33s-.96.63-1.57.81c-.62.18-1.31.27-2.08.27h-6.08v-14.55Zm3.78,5.71h.69c1.18,0,1.78-.47,1.78-1.41s-.59-1.41-1.78-1.41h-.69v2.82Zm0,5.9h.83c.95,0,1.63-.12,2.05-.37.41-.24.62-.64.62-1.18s-.21-.93-.62-1.18c-.41-.24-1.09-.37-2.05-.37h-.83v3.09Z"/><path class="cls-1" d="m75.76,84.09v9.34h-1.67v-9.34h-2.5v-1.57h6.67v1.57h-2.5Z"/><path class="cls-1" d="m78.95,81.51h1.6v5.63c.69-.7,1.44-.77,1.85-.77,1.26,0,1.83.65,2.03.93.43.62.44,1.42.44,1.91v4.22h-1.6v-4.07c0-.41,0-.85-.31-1.19-.18-.2-.49-.36-.9-.36-.54,0-.97.26-1.18.57-.23.33-.33.85-.33,1.73v3.32h-1.6v-11.92Z"/><path class="cls-1" d="m92.89,91.86c-.29.52-.72.98-1.16,1.26-.56.36-1.29.52-2.03.52-.92,0-1.67-.23-2.32-.88-.65-.65-1.01-1.6-1.01-2.63s.38-2.09,1.1-2.83c.57-.57,1.32-.93,2.31-.93,1.1,0,1.8.47,2.21.9.88.92.96,2.19.96,2.91v.2h-4.94c.03.49.25,1.05.59,1.39.38.38.83.44,1.23.44.44,0,.77-.1,1.1-.34.28-.21.49-.49.64-.75l1.34.75Zm-1.59-2.8c-.07-.38-.25-.7-.49-.93-.21-.2-.56-.39-1.08-.39-.56,0-.92.23-1.13.44-.23.21-.41.54-.49.88h3.19Z"/><path class="cls-1" d="m105.2,84.06h-3.37l-.54,1.82c.16-.02.34-.03.51-.03.92,0,1.85.31,2.52.97.52.51,1.06,1.37,1.06,2.8,0,1.19-.38,2.16-1.11,2.89-.87.85-1.91,1.11-3.03,1.11-.64,0-1.39-.08-2.09-.49-.16-.1-.78-.47-1.29-1.26l1.26-1.05c.03.08.33.62.83.95.36.25.87.38,1.42.38.88,0,1.39-.34,1.67-.61.33-.33.7-.92.7-1.85s-.31-1.44-.65-1.77c-.54-.51-1.26-.6-1.78-.6-.47,0-.83.07-1.28.23-.34.13-.65.28-.96.49l1.62-5.51h4.51v1.54Z"/><path class="cls-1" d="m109.36,88.01v5.41h-1.6v-5.41h-.67v-1.47h.67v-2.52h1.6v2.52h1.23v1.47h-1.23Z"/><path class="cls-1" d="m111.67,81.51h1.6v5.63c.69-.7,1.44-.77,1.85-.77,1.26,0,1.83.65,2.03.93.43.62.44,1.42.44,1.91v4.22h-1.6v-4.07c0-.41,0-.85-.31-1.19-.18-.2-.49-.36-.9-.36-.54,0-.97.26-1.18.57-.23.33-.33.85-.33,1.73v3.32h-1.6v-11.92Z"/></svg>