<?xml version="1.0" encoding="UTF-8"?><svg id="Layer_1" xmlns="http://www.w3.org/2000/svg" viewBox="0 0 270 235"><defs><style>.cls-1{fill:none;}.cls-2{fill:#231f20;}</style></defs><g id="Rec-Black"><path class="cls-2" d="m109.16,96.78l-3.55-.95s-3.27-.73-3.07-2.38c0,0,.08-1.93,3.69-2.43,0,0,4.36-.56,8.19,1.56v-5.47s-4.44-1.23-10.39-.55c0,0-7.98.58-10.98,5.52,0,0-2.1,3.14.02,6.79,0,0,1.53,2.66,7.13,4.25,0,0,5.45,1.38,6.71,2.35,0,0,1.95,1.2.69,2.91,0,0-1.76,2.54-9.01,1.57,0,0-3.71-.46-7.34-2.62l2.16,7.06s5.02,1.01,12.18.29c0,0,7.68-.59,11.18-5.17,0,0,2.99-3.97.59-7.91,0,0-1.82-3.21-8.19-4.84Z"/><path class="cls-2" d="m81.05,112.23c-1.01.17-1.98.2-2.83.04-2.18-.4-6.06-2.01-6.04-8.35,0,0-.36-6.85,5.83-9,0,0,5.33-1.74,9.09,1.08v-6.27s-3.84-.91-9.89.36c0,0-13.01,2.21-14.58,13.95,0,0-1.38,8.51,6.57,12.62,0,0,8.18,4.36,18.62-1.63l1.93-7.54s-2.93,3.75-8.69,4.74Z"/><path class="cls-2" d="m147.44,108.8v-18.05c0-3.54,1.86-3.94,1.86-3.94v-.78c-8.55-.29-12.52-.25-12.52-.25v.81c1.98.88,1.83,3.92,1.83,3.92v12.98c0,5.03-3.81,4.99-3.81,4.99-3.98,0-3.79-3.94-3.79-3.94v-14.14c0-3.19,1.91-3.8,1.91-3.8v-.81c-5.98.04-12.48.32-12.48.32l-.02.83c2.01.59,1.9,3.34,1.9,3.34v15.75c0,7.69,8.61,7.46,8.61,7.46,5.65-.17,7.71-2.99,7.71-2.99v2.38c4.14.03,10.73.25,10.73.25v-.84c-2.18-.81-1.93-3.49-1.93-3.49Z"/><path class="cls-2" d="m171.9,98.05c-.23-.11-1.38-.59-1.38-.59l-2.09-.84s-1.75-.68-2.17-.86c-1.1-.47-3.07-1.51-2.73-2.89,0,0,.31-1.82,3.97-1.73,0,0,4.36.06,7.85,2.6l-.04-5.4s-7.57-3.14-15.72-1.4c0,0-6.58,1.31-6.57,7.14,0,0-.47,5.04,8.21,8.44l3.99,1.68s4.59,1.78,3.58,4.03c0,0-.88,2.6-7.8,1.19,0,0-5.2-1.03-8.76-3.84l2.08,7.32s4.38,1.49,10.54,1.74c0,0,13.79,1.34,14.32-7.91,0,0,.82-4.87-7.29-8.68Z"/><path class="cls-2" d="m203.2,103.74s4.12-.69,4.33-3.92c0,0,.96-6.43-9.26-8.62,0,0-9.44-1.86-17.01-2.75v.84s2.17.49,2.17,4.09v18.01s.24,2.68-2.13,3.33v.84s5.08.71,11.67,1.81c1.56.26,5.45,1,6.32,1.12,2.46.34,7.47.41,9.71-4.16,0,0,1.82-3.91-1.57-7.71,0,0-1.59-1.96-4.22-2.88Zm-9.76-8.73c1.4-.27,2.7.66,2.7.66,2.25,1.67,1.09,3.92,1.09,3.92-1.26,2.2-3.79,1.07-3.79,1.07v-5.65Zm4.31,18.34c-2.52.67-4.3-.56-4.3-.56v-7.91c5.7.56,6.09,3.66,6.09,3.66.84,4.05-1.79,4.81-1.79,4.81Z"/><path class="cls-2" d="m205.7,90.27h-.95v-.62h2.69v.62h-.96v2.64h-.79v-2.64Z"/><path class="cls-2" d="m210.81,91.66c-.02-.39-.03-.86-.03-1.34h-.01c-.11.41-.26.88-.39,1.26l-.43,1.27h-.62l-.38-1.25c-.11-.39-.23-.84-.32-1.27h-.01c-.02.44-.04.94-.06,1.35l-.07,1.24h-.73l.22-3.25h1.06l.34,1.09c.11.37.22.78.3,1.16h.02c.09-.38.21-.8.33-1.17l.37-1.08h1.04l.19,3.25h-.77l-.06-1.25Z"/><path class="cls-2" d="m63.88,120.09c1.32-.14,3.28-.24,5.45-.24,2.69,0,4.57.26,5.86.91,1.07.55,1.67,1.36,1.67,2.43,0,1.48-1.64,2.5-3.2,2.86v.05c1.26.33,1.96,1.1,2.42,2.17.56,1.31,1.13,2.83,1.48,3.27h-4.19c-.3-.34-.73-1.27-1.26-2.7-.48-1.45-1.26-1.84-2.93-1.86h-1.24v4.57h-4.06v-11.46Zm4.06,5h1.61c2.04,0,3.25-.65,3.25-1.67,0-1.07-1.13-1.6-3.01-1.62-.99,0-1.56.05-1.85.09v3.2Z"/><path class="cls-2" d="m90.1,126.64h-6.66v2.76h7.44v2.15h-11.55v-11.61h11.18v2.15h-7.07v2.41h6.66v2.14Z"/><path class="cls-2" d="m106.5,131.22c-.75.24-2.44.52-4.65.52-6.26,0-9.48-2.52-9.48-5.82,0-3.96,4.41-6.17,9.89-6.17,2.12,0,3.73.28,4.46.52l-.83,2.08c-.83-.22-1.99-.43-3.44-.43-3.25,0-5.78,1.26-5.78,3.84,0,2.33,2.15,3.79,5.8,3.79,1.24,0,2.61-.17,3.41-.38l.62,2.05Z"/><path class="cls-2" d="m108.7,120.09c1.32-.14,3.28-.24,5.45-.24,2.69,0,4.57.26,5.86.91,1.07.55,1.67,1.36,1.67,2.43,0,1.48-1.64,2.5-3.2,2.86v.05c1.26.33,1.96,1.1,2.42,2.17.56,1.31,1.13,2.83,1.48,3.27h-4.19c-.3-.34-.73-1.27-1.26-2.7-.48-1.45-1.26-1.84-2.93-1.86h-1.24v4.57h-4.06v-11.46Zm4.06,5h1.61c2.04,0,3.25-.65,3.25-1.67,0-1.07-1.13-1.6-3.01-1.62-.99,0-1.56.05-1.85.09v3.2Z"/><path class="cls-2" d="m134.92,126.64h-6.66v2.76h7.44v2.15h-11.55v-11.61h11.18v2.15h-7.07v2.41h6.66v2.14Z"/><path class="cls-2" d="m142.23,128.57l-1.29,2.98h-4.25l5.53-11.61h5.37l5.62,11.61h-4.41l-1.4-2.98h-5.19Zm4.59-1.96l-1.13-2.46c-.32-.69-.65-1.55-.91-2.24h-.05c-.27.69-.54,1.57-.83,2.24l-1.07,2.46h4Z"/><path class="cls-2" d="m156.42,122.14h-4.86v-2.21h13.92v2.21h-4.94v9.41h-4.11v-9.41Z"/><path class="cls-2" d="m171.28,119.94v11.61h-4.11v-11.61h4.11Z"/><path class="cls-2" d="m190.92,125.62c0,3.81-3.6,6.12-8.89,6.12s-8.52-2.6-8.52-5.91c0-3.48,3.47-6.08,8.81-6.08s8.6,2.67,8.6,5.87Zm-13.09.16c0,2.27,1.67,3.88,4.41,3.88s4.35-1.69,4.35-3.95c0-2.08-1.56-3.88-4.38-3.88s-4.38,1.69-4.38,3.95Z"/><path class="cls-2" d="m193.13,131.55v-11.61h4.78l3.76,4.26c1.07,1.22,2.15,2.67,2.96,3.98h.08c-.27-1.53-.35-3.1-.35-4.86v-3.38h3.76v11.61h-4.3l-3.87-4.48c-1.07-1.24-2.26-2.74-3.14-4.1l-.08.02c.11,1.53.16,3.17.16,5.06v3.5h-3.76Z"/><path class="cls-2" d="m76.36,148.17c-.38-.26-.75-.52-1.18-.83-1.18.59-2.82,1.02-4.97,1.02-4.38,0-6.31-1.67-6.31-3.29,0-1.53,1.37-2.64,3.44-3.32v-.07c-.78-.55-1.37-1.41-1.37-2.24,0-1.46,1.8-3.07,5.43-3.07,2.79,0,4.92,1.05,4.92,2.72,0,1.17-1.07,2.17-3.57,2.98l-.03.07c1.05.74,2.15,1.58,3.04,2.17.73-.72,1.29-1.79,1.53-2.83h3.65c-.48,1.76-1.4,3.26-3.01,4.41,1.02.74,2.07,1.5,3.2,2.27h-4.76Zm-5.56-1.71c1.05,0,1.93-.26,2.47-.59-1.13-.72-2.61-1.77-4.08-2.84-.75.34-1.42.84-1.42,1.6,0,.98,1.16,1.83,3.01,1.83h.03Zm.43-8.46c-1.02,0-1.61.59-1.61,1.19s.43,1.1,1.24,1.67c1.32-.59,1.99-1.03,1.99-1.71,0-.55-.51-1.15-1.59-1.15h-.03Z"/><path class="cls-2" d="m89.45,148.17l-4.3-11.61h4.38l1.37,4.77c.4,1.4.78,2.89,1.07,4.07h.05c.3-1.26.73-2.65,1.18-4.08l1.53-4.75h4.35l1.45,4.89c.4,1.36.7,2.6.97,3.89h.05c.27-1.29.67-2.65,1.05-4.03l1.48-4.75h4.16l-4.68,11.61h-4.43l-1.53-5c-.35-1.17-.64-2.26-.86-3.58h-.05c-.32,1.31-.62,2.41-1.05,3.58l-1.72,5h-4.49Z"/><path class="cls-2" d="m120.67,143.26h-6.66v2.76h7.44v2.15h-11.55v-11.61h11.18v2.15h-7.07v2.41h6.66v2.14Z"/><path class="cls-2" d="m123.76,136.56h4.11v9.41h7.2v2.21h-11.31v-11.61Z"/><path class="cls-2" d="m137.01,136.56h4.11v9.41h7.2v2.21h-11.31v-11.61Z"/><path class="cls-2" d="m150.26,148.17v-11.61h4.78l3.76,4.26c1.07,1.22,2.15,2.67,2.96,3.98h.08c-.27-1.53-.35-3.1-.35-4.86v-3.38h3.76v11.61h-4.3l-3.87-4.48c-1.07-1.24-2.26-2.74-3.14-4.1l-.08.02c.11,1.53.16,3.17.16,5.06v3.5h-3.76Z"/><path class="cls-2" d="m179.09,143.26h-6.66v2.76h7.44v2.15h-11.55v-11.61h11.18v2.15h-7.07v2.41h6.66v2.14Z"/><path class="cls-2" d="m182.31,145.47c1.1.36,2.79.72,4.54.72,1.88,0,2.88-.5,2.88-1.26s-.86-1.14-3.04-1.64c-3.01-.67-4.97-1.74-4.97-3.43,0-1.98,2.58-3.5,6.85-3.5,2.04,0,3.55.28,4.62.59l-.91,2.12c-.73-.22-2.02-.55-3.79-.55s-2.63.52-2.63,1.12c0,.74,1.02,1.07,3.36,1.64,3.2.76,4.7,1.83,4.7,3.46,0,1.95-2.34,3.62-7.31,3.62-2.07,0-4.11-.36-5.13-.72l.83-2.17Z"/><path class="cls-2" d="m196.34,145.47c1.1.36,2.79.72,4.54.72,1.88,0,2.88-.5,2.88-1.26s-.86-1.14-3.04-1.64c-3.01-.67-4.97-1.74-4.97-3.43,0-1.98,2.58-3.5,6.85-3.5,2.04,0,3.55.28,4.62.59l-.91,2.12c-.73-.22-2.02-.55-3.79-.55s-2.63.52-2.63,1.12c0,.74,1.02,1.07,3.36,1.64,3.2.76,4.7,1.83,4.7,3.46,0,1.95-2.34,3.62-7.31,3.62-2.07,0-4.11-.36-5.13-.72l.83-2.17Z"/><rect class="cls-1" x="129.96" y="71.41" width="14.24" height="14.24"/><rect class="cls-1" x="209.47" y="104.97" width="14.24" height="14.24"/><rect class="cls-1" x="131.15" y="149.35" width="14.24" height="14.24"/><rect class="cls-1" x="48.29" y="93.96" width="14.24" height="14.24"/></g></svg>