<?xml version="1.0" encoding="UTF-8"?><svg id="Layer_1" xmlns="http://www.w3.org/2000/svg" viewBox="0 0 270 235"><defs><style>.cls-1{fill:#fff;}.cls-2{fill:#1d1d1b;}</style></defs><path class="cls-2" d="m100.05,97.73l-.74,1.51c-.96-.53-1.94-.82-2.93-.82-1.45,0-2.15.65-2.15,1.64s.63,1.54,1.54,2.19l2.35,1.74c1.51,1.11,2.39,2.21,2.39,3.93,0,2.54-1.82,3.85-4.44,3.85-1.66,0-3.32-.53-4.52-1.31l.76-1.47c1.06.65,2.39,1.19,3.77,1.19,1.9,0,2.76-.98,2.76-2.15,0-.98-.57-1.7-1.86-2.66l-2.33-1.76c-1.23-.92-2.11-1.9-2.11-3.48,0-2.01,1.39-3.3,3.87-3.3,1.37,0,2.58.39,3.64.9Z"/><path class="cls-2" d="m102.22,106.73c0-3.13,2.09-5.03,4.69-5.03,1.72,0,2.93.8,3.58,1.99h.04v-1.68h1.47v9.46h-1.47v-1.68h-.04c-.65,1.19-1.86,1.99-3.58,1.99-2.6,0-4.69-1.9-4.69-5.03Zm8.39,0c0-2.09-1.35-3.58-3.42-3.58s-3.42,1.49-3.42,3.58,1.35,3.58,3.42,3.58,3.42-1.49,3.42-3.58Z"/><path class="cls-2" d="m123.32,105.71v5.75h-1.47v-5.55c0-1.92-1.02-2.74-2.54-2.74-1.62,0-3.03.98-3.03,3.93v4.36h-1.47v-9.46h1.47v1.82h.04c.61-1.37,1.76-2.13,3.38-2.13,2.11,0,3.62,1.17,3.62,4.01Z"/><path class="cls-2" d="m142.72,107.43c0,2.66-2.07,4.03-4.5,4.03h-5.63v-14.33h5.08c2.54,0,4.22,1.33,4.22,3.58,0,1.51-.82,2.7-2.27,3.09v.04c1.9.25,3.11,1.58,3.11,3.58Zm-8.56-8.8v4.65h3.07c1.96,0,2.93-.8,2.93-2.29s-.96-2.35-2.84-2.35h-3.15Zm6.86,8.7c0-1.56-1.13-2.6-3.23-2.6h-3.62v5.24h3.79c1.92,0,3.07-1.04,3.07-2.64Z"/><path class="cls-2" d="m153.82,106.67v.27h-7.86c.04,2.09,1.41,3.4,3.4,3.4,1.76,0,2.66-1.04,3.23-1.8l1.06.96c-.7.98-1.9,2.27-4.28,2.27-2.99,0-4.91-2.03-4.91-5.01s1.92-5.06,4.81-5.06c3.09,0,4.54,2.17,4.54,4.97Zm-7.8-.86h6.2c-.14-1.72-1.21-2.74-3.03-2.74-1.64,0-2.95.94-3.17,2.74Z"/><path class="cls-2" d="m160.9,103.42h-.29c-2.01,0-3.13,1.27-3.13,3.6v4.44h-1.47v-9.46h1.47v2.13h.04c.39-1.41,1.54-2.42,3.13-2.42h.25v1.7Z"/><path class="cls-2" d="m171.23,105.71v5.75h-1.47v-5.55c0-1.92-1.02-2.74-2.54-2.74-1.62,0-3.03.98-3.03,3.93v4.36h-1.47v-9.46h1.47v1.82h.04c.61-1.37,1.76-2.13,3.38-2.13,2.11,0,3.62,1.17,3.62,4.01Z"/><path class="cls-2" d="m173.32,106.73c0-3.13,2.09-5.03,4.69-5.03,1.72,0,2.93.8,3.58,1.99h.04v-1.68h1.47v9.46h-1.47v-1.68h-.04c-.65,1.19-1.86,1.99-3.58,1.99-2.6,0-4.69-1.9-4.69-5.03Zm8.39,0c0-2.09-1.35-3.58-3.42-3.58s-3.42,1.49-3.42,3.58,1.35,3.58,3.42,3.58,3.42-1.49,3.42-3.58Z"/><path class="cls-2" d="m190.8,103.42h-.29c-2.01,0-3.13,1.27-3.13,3.6v4.44h-1.47v-9.46h1.47v2.13h.04c.39-1.41,1.54-2.42,3.13-2.42h.25v1.7Z"/><path class="cls-2" d="m191.29,106.73c0-3.13,2.09-5.03,4.69-5.03,1.72,0,2.93.8,3.58,1.99h.04v-6.55h1.47v14.33h-1.47v-1.68h-.04c-.65,1.19-1.86,1.99-3.58,1.99-2.6,0-4.69-1.9-4.69-5.03Zm8.39,0c0-2.09-1.35-3.58-3.42-3.58s-3.42,1.49-3.42,3.58,1.35,3.58,3.42,3.58,3.42-1.49,3.42-3.58Z"/><path class="cls-2" d="m205.66,99.8h-1.86v-2.46h1.86v2.46Zm-1.66,2.21h1.47v9.46h-1.47v-9.46Z"/><path class="cls-2" d="m216.86,105.71v5.75h-1.47v-5.55c0-1.92-1.02-2.74-2.54-2.74-1.62,0-3.03.98-3.03,3.93v4.36h-1.47v-9.46h1.47v1.82h.04c.61-1.37,1.76-2.13,3.38-2.13,2.11,0,3.62,1.17,3.62,4.01Z"/><path class="cls-2" d="m229.18,106.73c0,2.93-2.15,5.03-5.12,5.03s-5.12-2.11-5.12-5.03,2.17-5.03,5.12-5.03,5.12,2.11,5.12,5.03Zm-8.68,0c0,2.17,1.51,3.58,3.56,3.58s3.56-1.41,3.56-3.58-1.51-3.58-3.56-3.58-3.56,1.41-3.56,3.58Z"/><path class="cls-2" d="m100.4,135.91h-3.4l-5.42-14.33h3.79l3.32,10.23h.04l3.32-10.23h3.79l-5.42,14.33Z"/><path class="cls-2" d="m105.19,131.18c0-3.32,2.03-5.03,4.48-5.03,1.54,0,2.5.63,3.09,1.6h.04v-1.29h3.09v9.46h-3.09v-1.29h-.04c-.59.96-1.56,1.6-3.09,1.6-2.46,0-4.48-1.72-4.48-5.03Zm7.53,0c0-1.35-.94-2.21-2.19-2.21s-2.17.86-2.17,2.21.94,2.21,2.17,2.21,2.19-.86,2.19-2.21Z"/><path class="cls-2" d="m121.56,135.91h-3.09v-14.33h3.09v14.33Z"/><path class="cls-2" d="m127.31,135.91h-3.09v-14.33h3.09v14.33Z"/><path class="cls-2" d="m139.12,131.22v.7h-6.77c.2,1.19,1.15,1.72,2.42,1.72,1.15,0,2.15-.47,2.74-.86l1.13,2.33c-1,.61-2.29,1.11-3.91,1.11-3.17,0-5.28-1.99-5.28-4.99,0-3.19,2.09-5.06,4.99-5.06s4.69,1.64,4.69,5.06Zm-6.75-1.13h3.77c-.04-1.11-.8-1.74-1.8-1.74s-1.82.51-1.96,1.74Z"/><path class="cls-2" d="m150.89,126.45l-6.28,13.55h-3.11l2.37-4.99-4.24-8.56h3.56l2.21,5.22,2.35-5.22h3.13Z"/><path class="cls-2" d="m157.73,128.75c0-4.56,3.34-7.47,7.86-7.47,2.23,0,3.89.72,5.14,1.6l-1.72,2.78c-.92-.61-2.03-1.11-3.42-1.11-2.5,0-4.36,1.6-4.36,4.2s1.86,4.2,4.36,4.2c1.39,0,2.5-.49,3.42-1.11l1.72,2.78c-1.25.88-2.91,1.6-5.14,1.6-4.52,0-7.86-2.91-7.86-7.47Z"/><path class="cls-2" d="m182.35,131.18c0,3.03-2.25,5.03-5.32,5.03s-5.3-2.01-5.3-5.03,2.25-5.03,5.3-5.03,5.32,2.01,5.32,5.03Zm-7.53,0c0,1.35.98,2.21,2.21,2.21s2.21-.86,2.21-2.21-.96-2.21-2.21-2.21-2.21.86-2.21,2.21Z"/><path class="cls-2" d="m187.59,135.91h-3.09v-14.33h3.09v14.33Z"/><path class="cls-2" d="m193.34,135.91h-3.09v-14.33h3.09v14.33Z"/><path class="cls-2" d="m205.15,131.22v.7h-6.77c.2,1.19,1.15,1.72,2.42,1.72,1.15,0,2.15-.47,2.74-.86l1.13,2.33c-1,.61-2.29,1.11-3.91,1.11-3.17,0-5.28-1.99-5.28-4.99,0-3.19,2.09-5.06,4.99-5.06s4.69,1.64,4.69,5.06Zm-6.75-1.13h3.77c-.04-1.11-.8-1.74-1.8-1.74s-1.82.51-1.96,1.74Z"/><path class="cls-2" d="m208.24,139.84l.51-2.89c1.56.37,2.6.47,3.32.47,1.56,0,2.23-.51,2.23-2.17v-.61h-.04c-.55.74-1.51,1.43-3.11,1.43-2.48,0-4.46-1.64-4.46-4.91s2.03-5.01,4.48-5.01c1.54,0,2.5.63,3.09,1.6h.04v-1.29h3.09v9.46c-.02,2.97-1.82,4.4-5.1,4.4-.98,0-2.46-.14-4.05-.47Zm5.98-8.66c0-1.35-.94-2.21-2.19-2.21s-2.17.86-2.17,2.21.94,2.21,2.17,2.21,2.19-.86,2.19-2.21Z"/><path class="cls-2" d="m229.12,131.22v.7h-6.77c.2,1.19,1.15,1.72,2.42,1.72,1.15,0,2.15-.47,2.74-.86l1.13,2.33c-1,.61-2.29,1.11-3.91,1.11-3.17,0-5.28-1.99-5.28-4.99,0-3.19,2.09-5.06,4.99-5.06s4.69,1.64,4.69,5.06Zm-6.75-1.13h3.77c-.04-1.11-.8-1.74-1.8-1.74s-1.82.51-1.96,1.74Z"/><rect class="cls-2" x="91.61" y="115.98" width="137.58" height=".86"/><path class="cls-2" d="m83.92,116.25c0,1.12-.09,2.21-.25,3.28-.03.18-.06.36-.09.53-.1.55-.22,1.09-.36,1.63-.04.15-.08.31-.12.46-.05.17-.1.34-.15.51h0c-.08.25-.16.51-.25.75-.06.18-.13.36-.2.54-.01.04-.03.07-.04.11-.06.15-.12.3-.18.44-.01.03-.03.07-.04.1-.07.16-.14.32-.21.48,0,.01,0,.02-.02.03-1.81,4.01-4.82,7.37-8.57,9.62-.03.02-.06.04-.1.06-.18.11-.37.22-.56.32-.22.12-.44.24-.67.36-.37.19-.75.37-1.13.53-.08.04-.17.07-.25.11-.86.36-1.75.67-2.66.92-.17.04-.33.09-.5.13-.17.04-.34.08-.5.12-.42.1-.85.18-1.28.25-.09.01-.17.03-.26.04-.08.01-.16.02-.24.04-.01,0-.02,0-.03,0-.08.01-.16.02-.24.03-.09.01-.18.02-.26.03-.09,0-.18.02-.26.03-.16.02-.32.03-.48.04-.05,0-.1,0-.15.01-.06,0-.11,0-.17.01-.09,0-.18.01-.27.01-.17,0-.34.01-.52.02-.08,0-.16,0-.24,0-.11,0-.21,0-.32,0-1.77,0-3.48-.21-5.13-.61-.17-.04-.34-.09-.52-.13-.17-.05-.34-.1-.51-.15-.17-.05-.34-.1-.51-.16-.08-.03-.17-.05-.25-.08-.17-.06-.33-.12-.5-.18-.25-.09-.49-.19-.74-.29-.32-.13-.64-.27-.96-.42-.08-.04-.16-.07-.24-.11-.23-.11-.47-.23-.7-.35h0c-.61-.33-1.21-.68-1.79-1.06-.15-.1-.29-.19-.43-.29-.28-.2-.56-.4-.84-.61-.41-.31-.81-.64-1.2-.99-.19-.17-.38-.35-.57-.53-.25-.24-.49-.48-.73-.73-.18-.19-.35-.38-.53-.57-.34-.39-.67-.79-.99-1.2-.21-.27-.41-.55-.61-.84-.1-.14-.2-.29-.29-.43-.38-.58-.73-1.18-1.06-1.79h0c-.12-.23-.24-.47-.35-.7-.04-.08-.08-.16-.11-.24-.15-.32-.29-.64-.42-.96-.1-.24-.19-.49-.29-.74-.06-.17-.12-.33-.18-.5-.03-.08-.06-.17-.08-.25-.05-.17-.11-.34-.16-.51-.05-.17-.1-.34-.15-.51-.05-.17-.09-.34-.13-.52-.4-1.64-.61-3.36-.61-5.13,0-.48.01-.95.05-1.41,0-.09.01-.19.02-.28.01-.19.03-.37.05-.56,0-.09.02-.18.03-.28.02-.16.04-.32.06-.49.15-1.07.38-2.11.68-3.12.02-.06.04-.12.06-.18.02-.08.05-.16.07-.24,0,0,0-.02,0-.03.05-.15.1-.3.15-.45,0-.02.01-.03.02-.05,0-.03.02-.06.03-.08.01-.04.03-.08.04-.13.02-.05.04-.11.06-.16,0,0,0,0,0,0,.01-.04.03-.08.04-.12.35-.93.76-1.83,1.23-2.7,0,0,0,0,0,0,.29-.53.6-1.06.94-1.56.05-.07.1-.14.14-.22.1-.14.2-.29.3-.43.05-.07.1-.14.15-.21.05-.07.1-.13.15-.2.07-.1.15-.21.23-.31.03-.04.06-.08.09-.11.05-.07.11-.14.16-.2.05-.06.1-.12.15-.18.28-.34.57-.67.87-.99.06-.06.11-.12.17-.18.34-.36.69-.7,1.06-1.04.07-.07.15-.13.22-.2.08-.07.16-.14.24-.21.08-.07.16-.14.24-.21.08-.07.16-.14.25-.2.08-.07.17-.13.25-.2.17-.13.34-.26.51-.39.09-.06.17-.13.26-.19.18-.13.35-.25.53-.37,1.36-.92,2.83-1.69,4.39-2.28.48-.18.98-.35,1.48-.5.01,0,.03,0,.05-.01.08-.02.16-.04.23-.07.09-.03.17-.05.26-.07.09-.02.17-.05.26-.07.09-.02.17-.04.26-.07.09-.02.17-.04.26-.06.05-.01.1-.02.15-.03.07-.02.14-.03.21-.05.03,0,.06-.01.09-.02.11-.02.22-.05.34-.07.03,0,.06-.01.09-.02.09-.02.18-.03.26-.05.04,0,.07-.01.1-.02.08-.01.16-.03.24-.04.03,0,.06-.01.09-.01.05,0,.1-.01.14-.02.08-.01.16-.02.23-.03.02,0,.04,0,.07,0,.09-.01.18-.02.27-.03.03,0,.06,0,.09-.01.04,0,.07,0,.11-.01.1-.01.2-.02.29-.03,0,0,.02,0,.03,0,.1-.01.2-.02.31-.03.06,0,.12,0,.18-.01.1,0,.2-.01.29-.02.01,0,.02,0,.04,0,.13,0,.26-.01.39-.02h0c.12,0,.24,0,.36-.01.04,0,.07,0,.11,0,.12,0,.24,0,.36,0,.1,0,.21,0,.31,0,.07,0,.13,0,.2,0,.02,0,.05,0,.07,0,.08,0,.17,0,.25,0,.29.01.57.03.86.05.07,0,.14.01.21.02.19.02.38.04.57.06.05,0,.11.01.16.02.07,0,.14.02.21.03.02,0,.05,0,.07,0,.08.01.17.02.25.04.04,0,.07.01.11.02.1.01.2.03.3.05.1.02.21.04.31.05.03,0,.06.01.09.02.09.02.18.04.27.05,0,0,.02,0,.03,0,.11.02.21.04.32.07,0,0,.01,0,.02,0,.1.02.2.05.31.07.03,0,.06.01.09.02.07.02.13.03.2.05.26.07.53.14.79.21.09.03.18.05.27.08.3.09.61.19.9.3.06.02.11.04.17.06.09.03.18.07.27.1.11.04.22.08.32.12.1.04.19.08.29.12.25.1.5.21.75.33.08.03.15.07.23.11.1.05.21.1.31.15.12.06.23.11.34.17.09.05.18.09.27.14.07.04.14.07.2.11.05.03.1.06.16.09.08.04.16.09.24.14.1.06.2.11.29.17.08.05.17.1.25.15.11.07.23.14.34.21.09.06.19.12.28.18.08.05.16.11.24.16.3.2.59.42.88.64.09.07.17.13.26.2.08.06.16.12.23.18.02.02.04.04.07.05.07.06.14.12.21.18,0,0,.02.01.02.02.08.07.17.14.25.21.08.07.16.14.24.21,0,0,.01.01.02.02.08.07.16.14.24.22.1.1.21.19.31.29.15.14.29.28.44.43.08.08.16.16.24.24.24.24.47.5.69.75.37.43.73.87,1.07,1.32.07.09.13.18.2.27.33.46.65.94.94,1.42l-11.38,21.05-7.29-13.13-7.36-12.84h-4.56l8.38,14.66,8.23,15.13h4.99s10.18-18.46,11.11-20.16c0,.02.01.03.02.05.03.1.06.21.1.31.03.09.05.18.08.26.02.06.04.13.05.19.05.17.09.34.13.52.04.17.08.35.12.52.02.09.04.17.06.26,0,0,0,0,0,0,.04.18.07.35.1.53.01.09.03.18.05.27.04.27.08.53.12.81.02.15.04.3.05.45,0,.05.01.1.01.15,0,.05.01.1.01.15,0,.04,0,.08.01.12.01.16.03.32.04.48,0,.07,0,.15.01.22,0,.08,0,.16.01.23,0,.06,0,.11,0,.17,0,.09,0,.18,0,.27,0,.04,0,.09,0,.13,0,.12,0,.24,0,.36Z"/><path class="cls-1" d="m82.94,109.78c-.93,1.7-11.11,20.16-11.11,20.16h-4.99l-8.23-15.13-8.38-14.66h4.56l7.36,12.84,7.29,13.13,11.38-21.05c.44.75,1.43,2.48,2.13,4.7Z"/></svg>