<?xml version="1.0" encoding="UTF-8"?><svg id="Layer_1" xmlns="http://www.w3.org/2000/svg" viewBox="0 0 270 235"><defs><style>.cls-1{fill:none;}.cls-2{fill:#1d1d1b;}</style></defs><path class="cls-2" d="m55.37,116.7c1.77,0,3.54,0,5.31.02.32,0,.33-.15.33-.39,0-1.36,0-2.71,0-4.07,0-3.3,0-6.6,0-9.9,0-.31-.02-.48-.42-.5-.85-.05-1.44-.87-1.54-1.55-.17-1.22.46-2.2,1.65-2.52.31-.08.3-.22.3-.44,0-1.03,0-2.06,0-3.09,0-7.06,0-14.12-.01-21.17,0-.45.16-.59.54-.65.83-.15,1.65-.32,2.48-.47.16-.03.3-.08.42-.18.73-.6,1.5-1.15,2.19-1.79,1.09-1.03,2.28-1.95,3.46-2.86,1.26-.96,2.51-1.93,3.71-2.96,1.34-1.14,2.71-2.25,4.09-3.34.57-.45,1.14-.9,1.72-1.34.15-.11.22-.24.23-.43.01-.8.03-1.6.06-2.4,0-.21-.08-.3-.25-.38-.56-.28-.85-.75-.86-1.38,0-.65.28-1.13.86-1.41.26-.13.33-.29.34-.56.05-3.2.11-6.4.16-9.59,0-.36.13-.71-.28-1.01-.3-.23-.18-.68.13-.88.28-.18.65-.1.83.17.19.3.09.76-.25.9-.19.08-.14.18-.13.29.09,2.35.18,4.71.27,7.06.04,1.04.06,2.07.07,3.11,0,.26.06.42.31.53,1.1.5,1.03,2.21.08,2.72-.24.13-.27.28-.27.51.02.71.03,1.43.03,2.14,0,.25.13.39.3.53,1.45,1.18,2.9,2.36,4.35,3.55,2.39,1.95,4.77,3.91,7.15,5.87,1.17.96,2.35,1.92,3.53,2.88.17.14.35.22.57.27.88.18,1.75.4,2.64.56.25.04.26.13.26.32,0,.63,0,1.26,0,1.89,0,3.8,0,7.6,0,11.4,0,2.08.02,4.17,0,6.25-.02,1.71.07,3.42-.03,5.13-.01.18.05.31.31.35.99.13,1.51.73,1.66,1.71.16,1.03-.33,1.91-1.18,2.24-.04.02-.08.03-.12.04-.2.06-.5-.07-.6.12-.1.2-.05.47-.05.71,0,10.69,0,21.37,0,32.06,0,.17,0,.33,0,.57-.72-.59-1.38-1.14-2.05-1.68-1.67-1.35-3.35-2.71-5.23-3.76-1.07-.6-2.07-1.32-3.17-1.87-.95-.47-1.87-.99-2.82-1.45-1.27-.61-2.55-1.2-3.84-1.76-2.39-1.03-4.83-1.95-7.31-2.72-1.03-.32-2.08-.61-3.12-.9-2.51-.7-5.03-1.31-7.59-1.82-.99-.2-2-.32-2.98-.53-1.68-.37-3.39-.56-5.09-.81-.38-.06-.77.03-1.14-.1,0-.4,0-.8,0-1.2Zm11.24-45.26c.77.03,1.49-.28,2.24-.39,1.33-.19,2.65-.48,3.98-.72,1.14-.21,2.27-.46,3.43-.63,1.06-.16,2.09-.43,3.15-.62.33-.06.41-.18.41-.5-.01-2.21,0-4.43,0-6.64,0-.36,0-.73,0-1.07-.17-.05-.22.04-.28.09-3.96,3.25-7.91,6.51-11.96,9.65-.33.26-.71.47-.97.82-.02.01-.04.02-.06.04.01,0,.03.02.03.02.02-.02.03-.03.04-.05Zm.94,34.84c0,3.18.02,6.37-.02,9.55,0,.71.28,1.17.82,1.52.26.17.54.33.83.45,1.59.65,3.28.86,4.98.96.32.02.33-.16.33-.4,0-5.78,0-11.57,0-17.35,0-.22-.06-.36-.27-.48-.47-.26-.86-.64-1.01-1.17-.27-.97.15-1.93,1.03-2.49.16-.1.24-.21.24-.41,0-.71,0-1.43,0-2.14,0-.08.04-.19-.06-.23-.09-.04-.15.05-.21.1-.28.26-.56.52-.89.73-.97.64-2.02,1.06-3.17,1.3-.74.15-1.44.25-2.15-.05-.45-.2-.46-.19-.46.29,0,3.27,0,6.54,0,9.81Zm13.37-25.71c0,3.23,0,6.45,0,9.68,0,.14-.01.29,0,.43.04.27.11.47.46.5.82.07,1.65.14,2.46.27,1.15.17,2.31.18,3.45.38.97.17,1.97.18,2.96.28.62.06,1.23.21,1.84.25,1.85.1,3.69.31,5.52.6.87.14.99.06.99-.83,0-6,0-12,0-17.99,0-.66-.02-.68-.67-.81-3.46-.66-6.91-1.32-10.37-1.99-1.98-.38-3.96-.76-5.94-1.15-.59-.12-.71-.04-.71.57,0,3.27,0,6.54,0,9.81Zm-1.12.07c0-3.3,0-6.6,0-9.9,0-.62-.07-.68-.67-.56-1.89.36-3.77.73-5.66,1.09-3.62.7-7.24,1.4-10.87,2.1-.34.06-.49.2-.49.56,0,6.17,0,12.34,0,18.51,0,.52.06.58.57.54,1-.08,2.01-.17,3.01-.28,1.41-.15,2.81-.35,4.22-.49,1.84-.19,3.68-.35,5.51-.54,1.21-.12,2.41-.29,3.62-.42.65-.07.75-.16.75-.79,0-3.27,0-6.54,0-9.81Zm7.46,15.04c.78.84,1.62,1.52,2.74,1.71,1.08.18,2.18.25,3.25-.33,0,.24,0,.4,0,.57,0,9.47,0,18.94,0,28.41,0,.13-.01.26,0,.39.04.26.15.48.44.5.3.02.53-.11.61-.42.04-.16.04-.34.04-.51,0-9.6,0-19.2.01-28.8,0-1.07-.1-2.13-.07-3.2,0-.19-.04-.33-.27-.35-.68-.06-1.35-.12-2.03-.19-.9-.09-1.79-.18-2.69-.28-.95-.1-1.9-.2-2.85-.31-.24-.03-.34.03-.32.29.03.36.03.71.03,1.07,0,9.21,0,18.43,0,27.64,0,.16-.01.32.01.47.04.32.21.55.55.54.34-.01.51-.23.53-.56,0-.14,0-.29,0-.43,0-8.57,0-17.14,0-25.71v-.49Zm-7.46,15.49c0-2.84,0-5.69,0-8.53,0-.34-.06-.48-.44-.45-1.16.08-2.33.14-3.49.18-.29,0-.28.16-.28.36,0,5.26,0,10.51,0,15.77,0,.26.08.36.34.44,1.15.34,2.3.68,3.43,1.08.39.14.45.06.45-.31-.01-2.84,0-5.69,0-8.53Zm-13.37-1.84c0-2.01,0-4.03,0-6.04,0-.37-.11-.46-.47-.43-1.18.09-2.35.15-3.53.2-.29.01-.31.13-.31.36,0,3.71,0,7.43,0,11.14,0,.28.08.39.37.44,1.17.2,2.33.43,3.49.68.36.08.47.04.46-.35-.02-2,0-4,0-6Zm13.37-15.05c0-.57,0-1.14,0-1.71,0-.21-.05-.32-.29-.29-1.22.14-2.44.29-3.66.42-.22.02-.25.11-.25.3,0,1.1,0,2.19,0,3.29,0,.23.08.3.3.28,1.2-.12,2.4-.15,3.6-.31.23-.03.32-.12.31-.35-.02-.54,0-1.08,0-1.62Zm-13.37,1.23c0-.5,0-1,0-1.5,0-.22-.07-.33-.3-.28-.49.12-.99.07-1.48.17-.3.06-.67-.11-.83-.02-.45.26-.93.14-1.38.25-.25.06-.33.12-.33.36.01.94.01,1.88,0,2.82,0,.27.06.38.36.36,1.2-.1,2.4-.19,3.6-.28.22-.02.36-.13.35-.39-.01-.5,0-1,0-1.5Zm0,3.87c0-.16-.02-.32,0-.47.05-.37-.07-.51-.47-.46-.71.09-1.42.28-2.15.24-1.01-.06-1.99.24-2.99.28-.43.02-.83.79-.66,1.19.24.55.42.65,1.07.6,1.41-.12,2.82-.23,4.24-.34.96-.07.96-.07.96-1.03Zm9.44.18c1.41,0,2.8-.21,4.2-.25.23,0,.31-.1.3-.31,0-.27-.01-.54-.01-.81,0-.84,0-.84-.81-.78-.2.01-.4,0-.6.01-1.25.11-2.5.23-3.76.33-.23.02-.41.11-.58.23-.32.23-.41.77-.24,1.22.16.4.48.44.84.4.21-.02.43-.03.64-.04Z"/><path class="cls-2" d="m55.37,120.39c.71.11,1.43.21,2.15.29.79.08,1.54.32,2.34.33.62,0,1.21.24,1.82.35,1.84.33,3.67.68,5.49,1.09,4.79,1.08,9.49,2.46,14.05,4.27,2.32.92,4.61,1.92,6.82,3.07,4.1,2.12,7.87,4.7,11.16,7.96.49.48.6.98.55,1.6-.02.21-.1.28-.29.26-.07,0-.14,0-.21,0-4.9,0-9.8,0-14.7,0-6.66,0-13.32-.02-19.97-.01-1,0-2-.03-2.99-.02-1.04.01-2.09,0-3.13,0-1.03,0-2.06,0-3.09,0v-19.2Z"/><path class="cls-2" d="m209.63,154.59c-1.54-.87-2.31-2.44-3.41-3.72-.78-.91-1.49-1.87-2.23-2.81-.19.1-.12.24-.12.36,0,1.46,0,2.91,0,4.37,0,.5.05.97.57,1.35h-2.02c.75-.68.55-1.53.56-2.32.02-1.31.05-2.63-.02-3.94-.03-.55.1-1.2-.55-1.68.59,0,1.07,0,1.55,0,.18,0,.23.13.32.24,1.47,1.88,2.94,3.75,4.41,5.63.05.06.08.15.19.16.13-.09.07-.23.07-.35,0-1.41,0-2.83,0-4.24,0-.53-.13-1-.55-1.41h1.97c-.69.47-.58,1.16-.58,1.81,0,2.18,0,4.37,0,6.55h-.17Z"/><path class="cls-2" d="m172.33,154.59c-1.44-.73-2.13-2.18-3.12-3.33-.84-.97-1.6-2.01-2.4-3.02-.06-.08-.13-.14-.2-.22-.15.09-.09.22-.09.32,0,1.47,0,2.94,0,4.41,0,.51.07,1,.58,1.39h-1.95c.73-.81.5-1.78.51-2.7.02-1.23,0-2.46,0-3.68,0-.74-.06-.92-.5-1.56.53,0,1.02,0,1.51,0,.19,0,.22.16.3.27,1.42,1.81,2.83,3.62,4.25,5.43.08.1.13.26.31.27.11-.14.06-.3.06-.45,0-1.37,0-2.74,0-4.11,0-.51-.04-1-.56-1.38h1.97c-.63.51-.53,1.2-.53,1.86,0,2.01,0,4.03,0,6.04,0,.16.02.31.02.47h-.17Z"/><path class="cls-2" d="m139.23,154.59c-.2-.31-.58-.43-.82-.71-1.05-1.21-2-2.49-3-3.73-.47-.58-.92-1.17-1.38-1.75-.09-.11-.16-.27-.33-.3-.1.06-.07.16-.07.24,0,1.54.01,3.08,0,4.63,0,.47.13.85.56,1.19h-2c.86-.74.52-1.67.54-2.52.04-1.34,0-2.68.01-4.03,0-.51-.04-1-.6-1.41.61,0,1.09,0,1.56,0,.13,0,.2.07.27.17,1.24,1.6,2.48,3.2,3.73,4.8.29.37.61.73,1.01,1.2,0-.56,0-.99,0-1.41,0-1.03,0-2.07,0-3.1,0-.89-.02-.93-.53-1.63h1.88s.02.05,0,.05c-.46.28-.5.74-.5,1.21,0,2.37,0,4.74,0,7.11h-.34Z"/><path class="cls-2" d="m55.37,149.45c.24-.66.48-1.31.89-1.91.32-.47.77-.7,1.2-.99.59-.4,1.27-.53,1.98-.53.66,0,1.32,0,1.98.11.32.06.5.22.46.57-.02.17,0,.34,0,.51,0,.46-.08.52-.47.31-.43-.23-.86-.38-1.35-.44-1.05-.13-2.01.09-2.62.96-.51.73-.94,1.55-.59,2.58.13.4.16.85.39,1.22.96,1.53,2.45,1.97,4.14,1.25.34-.15.68-.29,1.12-.47-.21.5-.39.91-.57,1.32-.04.08-.11.13-.19.16-1.7.69-4.9.38-6-2.11-.14-.32-.24-.66-.36-.99,0-.51,0-1.03,0-1.54Z"/><path class="cls-2" d="m164.17,138.4c18.31,0,36.61,0,54.92,0,.64,0,.9.15.9.53,0,.38-.29.56-.94.56-36.63,0-73.26,0-109.89,0-.03,0-.06,0-.09,0-.52,0-.8-.21-.8-.57,0-.35.27-.52.78-.52,18.36,0,36.73,0,55.09,0Z"/><path class="cls-2" d="m166.54,114.26c-.42-.19-.86-.06-1.3-.07-.29,0-.39-.07-.39-.38.01-3.61,0-7.23,0-10.84,0-.27.06-.38.35-.37.69.02,1.37.01,2.06,0,.22,0,.3.06.38.29.69,2.02,1.39,4.04,2.12,6.05.32.87.62,1.74.92,2.64.39-.16.33-.6.43-.88.38-1.15.85-2.27,1.24-3.42.4-1.18.84-2.35,1.28-3.52.1-.27.17-.55.3-.81.13-.27.26-.35.54-.34.67.02,1.34.02,2.01,0,.25,0,.31.07.31.31,0,3.64,0,7.29,0,10.93,0,.26-.06.36-.33.34-.43-.02-.86-.01-1.29,0-.2,0-.27-.07-.27-.27,0-2.57-.02-5.14.02-7.71,0-.44.07-.89,0-1.37-.29.8-.58,1.59-.86,2.39-.23.68-.43,1.39-.69,2.05-.19.48-.38.99-.56,1.47-.2.53-.43,1.06-.58,1.61-.15.56-.39,1.11-.6,1.65-.05.12-.17.17-.32.17-.46-.01-.91-.01-1.37,0-.2,0-.26-.06-.26-.27,0-.4-.2-.75-.35-1.12-.31-.77-.58-1.56-.82-2.36-.25-.86-.54-1.72-.85-2.56-.28-.74-.57-1.48-.79-2.23-.02-.05,0-.12-.03-.17-.09-.14-.05-.43-.24-.4-.19.03-.09.29-.08.44.18,2.72.11,5.44.12,8.16,0,.2.01.4-.08.58,0,0-.02-.02-.02-.02v.03Z"/><path class="cls-2" d="m140.5,130.71c-.5.66-1.06,1.1-1.78,1.24-1.47.29-2.73.05-3.71-1.31-.79-1.09-.81-2.32-.76-3.57.04-1.07.25-2.12.89-3.01.54-.75,1.29-1.15,2.22-1.19.84-.04,1.67.01,2.39.52.02.02.05.04.07.04.15.04.17.34.38.21.21-.13.22-.35.22-.59-.02-1.13,0-2.26-.02-3.38,0-.24.1-.28.31-.28.44,0,.89.01,1.33,0,.23,0,.3.08.29.29,0,.13.02.26.02.38,0,3.8,0,7.6.01,11.4,0,.37-.1.47-.45.44-.3-.03-.6-.01-.9,0-.16,0-.32-.06-.3-.21.05-.33-.2-.57-.2-.98Zm-.01-3.18c.06-.52-.1-1.06-.22-1.61-.2-.92-.9-1.43-2.07-1.5-.62-.04-1.36.43-1.65,1.23-.43,1.16-.42,2.34-.07,3.51.21.69.68,1.13,1.38,1.32.38.1.74-.02,1.09-.07.59-.1,1.05-.4,1.26-1.05.18-.58.31-1.16.29-1.83Z"/><path class="cls-2" d="m175.29,120.15c.49,0,.97.03,1.46,0,.36-.02.48.06.48.46-.02,2.46-.02,4.91,0,7.37,0,1.37,1.01,2.46,2.39,2.36.65-.04,1.3.05,1.9-.37.65-.45.98-1.06,1.03-1.8.18-2.5.05-5.01.07-7.52,0-.43.12-.54.52-.5.38.04.77.02,1.16,0,.22,0,.3.07.3.3,0,2.5.01,5-.02,7.5,0,.56-.05,1.16-.28,1.65-.44.93-1.15,1.64-2.14,2.06-.74.31-1.52.48-2.29.45-1.91-.06-3.56-.65-4.33-2.63-.15-.38-.25-.79-.26-1.19-.02-2.64-.01-5.29,0-7.93,0-.07.02-.14.04-.21,0,0,.01,0,.01,0h0Z"/><path class="cls-2" d="m113.19,121.78c-.39-.13-.77-.15-1.16-.01-.02-.02-.04-.05-.05-.05-.05.02-.05.06-.01.1-.68.06-1.1.39-1.28,1-.14.51.11,1.22.6,1.52.72.44,1.46.83,2.25,1.14,1.07.41,2.13.97,2.44,2.2.46,1.83-.11,3.53-2.32,4.16-1.58.45-3.17.3-4.72-.24-.25-.09-.36-.22-.34-.5.03-.48,0-.97,0-1.51.69.29,1.35.55,2.05.66.89.14,1.79.29,2.66-.13.55-.27.85-.73.86-1.31,0-.52-.29-.92-.74-1.22-.74-.49-1.57-.78-2.38-1.14-.84-.37-1.51-.92-1.96-1.74-.92-1.7-.18-3.68,1.4-4.34.39-.17.82-.37,1.29-.28.12-.02.29.1.35-.12.34,0,.68,0,1.02,0,.06.21.22.09.34.11.74.02,1.45.19,2.13.49.22.1.36.2.22.47-.14.28-.26.57-.34.86-.12.44-.38.41-.72.28-.5-.18-1-.36-1.53-.39.03-.04.03-.08-.02-.09,0,0-.03.03-.05.05Z"/><path class="cls-2" d="m108.62,111.89c.87.43,1.74.65,2.66.78.54.08,1.02.05,1.53-.08.73-.19,1.23-.63,1.29-1.38.05-.62-.34-1.06-.88-1.38-.54-.32-1.09-.61-1.67-.85-.64-.26-1.25-.56-1.77-1.02-1.51-1.35-1.55-3.96.59-5.1.98-.52,2.1-.45,3.18-.35.67.06,1.31.26,1.94.5.27.1.4.24.24.55-.12.22-.2.47-.29.7-.21.51-.28.53-.79.33-.75-.3-1.52-.51-2.33-.46-.65.04-1.28.18-1.57.9-.21.53-.04,1.24.4,1.62.55.47,1.24.69,1.88.99.84.4,1.72.72,2.35,1.47,1.2,1.42.73,4.37-1.66,4.97-.97.24-1.92.24-2.89.25-.72,0-1.36-.19-2-.48-.1-.05-.22-.09-.22-.23,0-.56,0-1.13,0-1.71Z"/><path class="cls-2" d="m209.88,128.48c-.13.64-.28,1.25-.65,1.83-.48.75-1.11,1.27-1.93,1.52-1.6.49-3.15.34-4.43-.78-.76-.67-1.28-1.6-1.32-2.68-.03-.8-.03-1.6.1-2.41.16-1.08,1.09-2.35,2.1-2.75.45-.18.93-.38,1.38-.38.9,0,1.82,0,2.65.45.76.4,1.33.98,1.68,1.76.11.25.21.51.35.74.25.41.06.86.14,1.29.08.46.02.94-.06,1.41,0,0-.03,0-.03,0h.03Zm-2.04-.21s.05,0,.07,0c-.02,0-.05-.01-.07-.02.3-1.04.1-2.04-.42-2.95-.31-.54-.86-.72-1.5-.84-.87-.17-1.77.37-2.02.96-.5,1.21-.53,2.46-.14,3.71.47,1.53,2.42,1.56,3.27.96.62-.44.75-1.12.81-1.82Z"/><path class="cls-2" d="m149.27,127.91c-.87,0-1.74.01-2.62,0-.28,0-.35.09-.31.34.18,1.15.9,2.28,2.38,2.28.91,0,1.78-.12,2.62-.49.46-.21.48-.18.48.32,0,.1,0,.2,0,.3,0,.87,0,.86-.87,1.14-1.05.34-2.14.38-3.2.22-.79-.12-1.51-.51-2.14-1.07-.9-.8-1.15-1.82-1.22-2.94-.04-.69-.03-1.39.09-2.07.1-.54.38-1.03.7-1.49.73-1.04,1.73-1.55,3-1.58.72-.02,1.41.09,2.09.29.25.07.46.3.66.48.66.58,1.02,1.31,1.17,2.18.1.59.16,1.17.16,1.76,0,.26-.07.34-.34.34-.89-.02-1.77,0-2.66,0Zm-.91-1.42c.54,0,1.08,0,1.62,0,.23,0,.31-.04.32-.3,0-1.32-1.02-2.12-2.4-1.82-.85.19-1.22.87-1.47,1.61-.14.4-.03.5.39.5.51,0,1.02,0,1.54,0Z"/><polygon class="cls-2" points="181.9 105.31 181.89 105.31 181.89 105.34 181.9 105.31"/><path class="cls-2" d="m186.23,108.55c0-.52-.05-1.02-.19-1.51-.2-.71-.66-1.22-1.35-1.47-.9-.32-1.84-.45-2.8-.27h0s0,0,.01,0c0,0,0,.03,0,.03v-.03c-.66.02-1.24.33-1.86.5-.45.13-.44.32-.24.64.04.06.07.12.11.17.15.23.08.64.36.7.24.04.52-.17.78-.24.79-.2,1.57-.53,2.41-.16.31.13.56.29.68.61.12.31.1.63.12.95.02.25-.05.35-.33.34-.86-.04-1.72.03-2.58.16-1.06.17-2.35.87-2.57,1.99-.08.41-.06.82-.03,1.24.05.6.33,1.09.75,1.51.54.54,1.21.6,1.91.62.94.03,1.81-.14,2.52-.82.37-.36.64-.3.69.18.05.5.32.5.67.47.16,0,.32-.02.47,0,.35.05.46-.07.46-.44-.02-1.73-.02-3.46,0-5.18Zm-1.91,2.31c-.02.43-.14,1.09-.72,1.52-.63.47-1.36.6-2.13.37-.4-.12-.66-.42-.73-.81-.1-.55.06-1.04.52-1.39.34-.26.74-.36,1.14-.44.43-.08.87-.09,1.31-.09.61-.01.61,0,.61.85Z"/><path class="cls-2" d="m211.98,122.99c.49,0,.97,0,1.46,0,0,0,0,.01,0,.01h.01c.22.33.08.79.37,1.16.48-.69,1.11-1.13,1.93-1.24,1-.13,2-.13,2.88.4.6.36.94.96,1.04,1.69.32,2.2.08,4.4.16,6.6,0,.22-.06.3-.29.29-.44-.02-.89-.02-1.33,0-.3.02-.35-.11-.34-.37,0-1.67,0-3.34,0-5.01,0-.43-.09-.84-.26-1.24-.23-.55-1-1.01-1.56-.84-.24.07-.47.03-.7.1-.67.2-1.04.67-1.24,1.28-.12.4-.21.81-.21,1.24.02,1.5,0,3,.01,4.5,0,.28-.08.37-.35.35-.43-.02-.86-.02-1.29,0-.23,0-.32-.05-.32-.3.01-2.87.01-5.74.02-8.61,0,0,.02.01.02.01v-.02Z"/><path class="cls-2" d="m154.27,122.99c.4,0,.8.01,1.2,0,.26-.01.37.1.38.34,0,.04,0,.09,0,.13.06.2,0,.49.19.57.2.09.28-.22.41-.34.47-.45,1.05-.68,1.67-.75,1.05-.12,2.1-.13,3,.57.59.47.93,1.13.95,1.85.06,2.06.03,4.12.06,6.18,0,.29-.06.4-.37.38-.38-.03-.77-.03-1.16,0-.33.02-.44-.07-.43-.42.02-1.66.01-3.31,0-4.97,0-.52-.03-1.05-.37-1.47-.49-.6-1.18-.67-2-.51-.92.18-1.28.77-1.47,1.54-.11.42-.11.88-.11,1.32-.01,1.37-.02,2.74,0,4.11,0,.32-.08.42-.4.4-.51-.02-1.03.01-1.54.02,0,0,.01-.02.01-.02h-.02c0-2.96,0-5.94,0-8.92,0,0,.02.02.02.02v-.02Z"/><path class="cls-2" d="m187.18,127.4c0-1.4,0-2.8,0-4.19,0-.15.04-.21.18-.21.4,0,.8,0,1.2,0,.2,0,.27.15.25.32,0,.08.01.12.04.19.08.18.02.44.21.55.04.02.21-.26.35-.37.59-.45,1.17-.88,1.99-.82.58.04,1.17-.02,1.73.15,1.26.39,1.79,1.2,1.89,2.52.15,2.04.03,4.08.06,6.12,0,.23-.1.26-.29.25-.41,0-.83-.02-1.24,0-.33.02-.43-.07-.43-.42.02-1.6.02-3.2,0-4.8,0-.56-.07-1.11-.37-1.61-.31-.5-.94-.67-1.61-.61-.46.04-.89.1-1.23.44-.32.3-.51.67-.61,1.09-.33,1.45-.09,2.92-.16,4.38-.02.41-.02.83,0,1.24.01.23-.07.29-.29.28-.44-.02-.89-.02-1.33,0-.28.02-.32-.1-.32-.35.01-1.39,0-2.77,0-4.16-.01,0-.02,0-.03,0Z"/><path class="cls-2" d="m188.57,114.18c0-2.79,0-5.59-.01-8.38,0-.33.1-.42.41-.4.35.02.71,0,1.07,0,0,0,0,0,0,0,.13.36.14.75.31,1.09.02,0,.06,0,.07-.02,1.08-1.55,3.52-1.53,4.82-.66.68.46.92,1.19,1.01,1.97.11.91.04,1.82.05,2.74.01,1.06-.02,2.11.01,3.17.01.41-.13.52-.51.48-.35-.03-.71-.02-1.07,0-.28.02-.37-.07-.36-.36.01-1.56.02-3.11,0-4.67,0-.45-.08-.9-.19-1.34-.12-.51-.51-.83-1-.86-.49-.03-.99-.12-1.5.08-.65.26-.89.74-1.03,1.34-.21.84-.16,1.69-.16,2.54,0,.94-.02,1.89,0,2.83.01.37-.12.46-.46.44-.48-.02-.97,0-1.46,0,0,0,0-.02,0-.03,0,0,0,.02,0,.03Z"/><path class="cls-2" d="m130.28,127.8c0-1.47.01-2.94,0-4.41,0-.31.07-.43.4-.41.4.03.8.02,1.2,0,.23,0,.33.05.32.31-.01.74,0,1.49.01,2.23,0,2,0,4,0,6,0,.29-.06.43-.37.38-.1-.02-.2,0-.3,0q-.94,0-1.07-.94c0-.05-.03-.1-.06-.2-.23.15-.35.37-.51.54-.53.53-1.19.65-1.88.75-.6.09-1.18.02-1.76-.15-1.09-.32-1.62-1.09-1.88-2.13-.08-.31-.01-.6-.01-.9,0-1.81.01-3.63-.01-5.44,0-.37.1-.47.45-.44.38.03.77.02,1.16,0,.23,0,.34.05.33.31,0,1.74.03,3.49-.02,5.23-.05,1.75,1.21,2.25,2.46,1.86.99-.31,1.45-1.02,1.49-2.21,0-.12-.06-.26.04-.37,0,0,0,0,0,0Z"/><path class="cls-2" d="m204.78,114.17s0-.03,0-.04c-.23-.9-.22-.89-.96-.4-.66.43-1.38.66-2.19.61-.58-.03-1.15-.09-1.7-.25-.2-.06-.38-.26-.51-.44-.46-.63-.85-1.27-.84-2.11.02-1.94,0-3.88-.01-5.82,0-.23.05-.34.3-.32.43.02.86.03,1.28,0,.32-.02.37.12.37.4-.01,1.68,0,3.37,0,5.05,0,.28,0,.56.09.84.19.67.69,1.04,1.37,1.07,1.28.06,1.9-.56,2.17-1.26.1-.27.14-.57.17-.85.16-1.59.08-3.18.08-4.78,0-.36.06-.52.46-.47.37.04.74.02,1.11,0,.26-.01.35.06.35.33,0,2.71,0,5.43,0,8.14,0,.26-.09.31-.33.31-.4-.01-.8,0-1.2,0,.04,0,.04-.01,0-.03,0,.01,0,.02-.01.03Z"/><path class="cls-2" d="m132.84,114.18c0-1.67,0-3.34,0-5,0-.14.05-.29-.06-.41.12-.16.14-.32-.05-.45-.01-1-.52-1.48-1.43-1.39-.31.03-.6-.05-.93.03-.72.16-1.01.65-1.25,1.26-.22.57-.17,1.17-.18,1.76-.02,1.27-.02,2.54,0,3.81,0,.33-.1.42-.41.4-.4-.02-.8-.01-1.2,0-.2,0-.31-.04-.31-.28,0-2.74,0-5.48,0-8.22,0-.2.08-.29.28-.27.01,0,.03,0,.04,0,.38,0,.84-.11,1.13.06.28.16.17.69.36,1.08.44-.79,1.17-1.07,1.97-1.27.05.05.1.04.14,0,.5-.06.99-.08,1.49.04,0,0,0,0,0,0,.78.19,1.49.47,1.9,1.23.3.56.43,1.15.43,1.78,0,1.82,0,3.65,0,5.47,0,.31-.1.39-.39.38-.51-.02-1.03,0-1.54,0,.04,0,.04-.01,0-.03,0,.01,0,.02,0,.03Z"/><path class="cls-2" d="m154.7,105.32c.69-.09,1.39-.13,2.08,0,0,0,0,0,0,0,.57-.02,1.06.31,1.61.36.19.02.4.16.24.45-.15.29-.28.6-.38.91-.09.26-.27.3-.46.2-.61-.32-1.3-.28-1.94-.47-.42-.13-.86.05-1.26.19-.4.14-.38.88,0,1.19.57.46,1.27.65,1.92.93.47.2.93.4,1.37.67,1.53.94,1.11,3.51-.23,4.07-.59.25-1.14.48-1.78.5-.82.02-1.64.03-2.46-.11-.29-.05-.53-.25-.83-.28-.13-.01-.16-.18-.16-.32,0-.47,0-.94,0-1.46,1.06.57,2.16.79,3.32.68.81-.08,1.3-.53,1.16-1.21-.06-.26-.24-.39-.42-.5-.69-.42-1.44-.7-2.21-.98-.92-.33-1.58-.96-1.83-1.98-.38-1.56.98-2.77,2.1-2.78.05,0,.1-.04.15-.07,0,0,0,0,0,0Z"/><path class="cls-2" d="m117.06,123.63c.18-.4.63-.34.93-.56.19-.14.37-.25.42-.5.05-.21.14-.42.21-.62.31-.89.31-.89,1.25-.88.25,0,.36.05.34.33-.02.41,0,.83-.01,1.24-.01.27.06.37.35.36.7-.02,1.39,0,2.09-.01,0,0,0,.01,0,.01h.01c.14.42.04.87.06,1.3.01.23-.18.18-.31.18-.63,0-1.26.01-1.88,0-.24,0-.32.07-.32.31,0,1.54,0,3.08,0,4.62,0,.6.74,1.17,1.31,1.04.37-.08.76.02,1.13-.14.14-.06.15.09.15.19,0,.36,0,.71,0,1.07,0,.39-.35.47-.59.46-.62-.04-1.22.12-1.84.03-.79-.11-1.38-.54-1.83-1.1-.27-.34-.25-.89-.28-1.35,0,0,.02,0,.02,0h-.01c0-1.59,0-3.17.01-4.75,0-.34-.1-.4-.41-.39-.26.01-.54.08-.79-.06,0-.26,0-.52,0-.78Z"/><path class="cls-2" d="m141.59,112.6c.05.02.15.03.15.05.01.48.16.96-.09,1.44-.09.16-.2.2-.31.2-.66,0-1.32.13-1.97.01-.18-.03-.24.16-.5.06-1.26-.46-1.54-1.47-1.58-2.59-.06-1.51-.02-3.03-.01-4.54,0-.24-.06-.34-.31-.3-.07.01-.14,0-.21,0-.73,0-.72,0-.7-.73,0-.19.08-.3.23-.35.17-.06.32-.15.48-.22.35-.15.71-.34.76-.8.04-.39.34-.7.36-1.1,0-.12.11-.25.3-.23.34.03.68-.04,1.02.04,0,0-.01.01-.01.01h.01c0,.52,0,1.05,0,1.58,0,.23.07.29.29.29.61-.01,1.23,0,1.84,0,.25,0,.35.06.36.33.03,1.13.04,1.12-1.09,1.13-.45,0-1.04-.2-1.32.09-.26.26-.07.84-.07,1.28,0,1,0,2,0,3,0,.19,0,.37.02.56.06.54.33.96,1.05.97.45,0,.89-.03,1.33-.17,0,0,0,.03,0,.03,0,0,0-.03,0-.03Z"/><path class="cls-2" d="m166.74,129.42c.02.52.29.84.76,1.02.06.02.16.08.19.05.4-.29.86.06,1.27-.13.26-.12.4,0,.35.3-.01.07,0,.14,0,.21,0,.95-.2,1.12-1.19,1.17-.63.03-1.25.04-1.86-.16-1-.33-1.51-1.32-1.5-2.28.01-1.61,0-3.23,0-4.84,0-.2-.04-.3-.26-.27-.13.01-.26,0-.39,0-.64,0-.77-.16-.63-.79.02-.08.03-.12.11-.15.08-.03.14-.09.22-.12.98-.28,1.27-1.09,1.46-1.95.07-.33.21-.44.55-.43.87.03.87,0,.87.87q0,1.06,1.06,1.06c.39,0,.77.01,1.16,0,.25-.01.32.08.31.32-.02.28-.02.57,0,.86.03.28-.1.33-.35.32-.63-.01-1.26,0-1.88,0-.17,0-.3-.01-.3.23.02,1.57.02,3.14.03,4.71,0,0-.01,0-.01,0h.01Z"/><path class="cls-2" d="m211.07,150.49c-.11-2.55,1.65-4.14,3.72-4.46,1.52-.23,2.99.08,4.1,1.3.66.73,1.04,1.58,1.03,2.6-.02,2.25-1.21,3.83-3.31,4.33-2.16.52-4.22-.43-5.23-2.37-.27-.51-.31-1.03-.3-1.4Zm7.49-.23c.03-.26,0-.56-.08-.87-.47-2.05-2.41-3.07-4.31-2.27-1.27.54-1.94,1.89-1.73,3.49.21,1.61,1.43,2.82,2.84,2.91,1.85.12,3.33-1.17,3.27-3.26Z"/><path class="cls-2" d="m143.96,154.18c.57-.58.47-1.23.5-1.81.06-1.42.03-2.85.01-4.28,0-.42-.1-.84-.08-1.27.01-.23-.17-.41-.38-.66,1.22,0,2.35-.06,3.46.02.81.06,1.46.54,1.85,1.28.24.45-.1,1.34-.63,1.74-.07.05-.14.1-.21.14-.07.05-.16.07-.18.18.09.15.26.14.4.2.68.27,1.14.73,1.32,1.45.23.96-.22,1.99-1.1,2.51-.4.24-.83.4-1.28.44-1.18.1-2.36.04-3.67.05Zm1.69-2.46c0,.41,0,.83,0,1.24,0,.16.02.28.21.31.79.11,1.56.16,2.29-.27.58-.34.58-.9.53-1.47-.04-.5-.29-.86-.77-1.07-.63-.28-1.29-.29-1.96-.26-.22.01-.3.11-.29.32,0,.4,0,.8,0,1.2Zm0-3.52c0,.29.02.57,0,.85-.03.33.12.4.42.41.33.01.6-.12.91-.17.53-.08.96-.47,1.02-.94.07-.61-.17-1.02-.73-1.25-.38-.16-.78-.16-1.18-.14-.34.02-.48.16-.44.51.03.24,0,.48,0,.73Z"/><path class="cls-2" d="m190.3,154.18c.44-.44.48-.91.48-1.38,0-1.77,0-3.54,0-5.31,0-.44-.02-.89-.45-1.3,1.2,0,2.32-.03,3.44,0,1.95.07,3.36,1.08,3.84,2.96.54,2.11-.62,4.47-3.13,4.89-1.34.23-2.71.09-4.17.13Zm1.69-4.05c0,.91,0,1.82,0,2.74,0,.15-.05.34.19.36,1.13.14,2.23.09,3.17-.65.85-.67,1.06-1.59,1.02-2.63-.04-1.26-.79-2.36-1.97-2.77-.68-.24-1.38-.14-2.07-.12-.27,0-.35.16-.34.42.01.88,0,1.77,0,2.65Z"/><path class="cls-2" d="m184.84,154.16h-2c.47-.49.4-1.08.4-1.64,0-1.63,0-3.26,0-4.88,0-.5.02-1-.46-1.45,1.3.09,2.51-.12,3.71.1,1.07.2,1.45.84,1.59,1.57.21,1.09-.42,1.71-1.16,2.15-.22.13-.62.11-.65.37-.02.19.27.41.43.61.91,1.17,1.8,2.35,3.1,3.2-1.11.21-1.99.04-2.71-.87-.79-1-1.52-2.03-2.24-3.08-.12-.17-.01-.2.09-.23.29-.1.6-.17.88-.29.77-.34,1.1-.99.9-1.77-.17-.67-.7-1.01-1.54-.99-.13,0-.26.01-.38.02-.22.02-.32.11-.32.35.01,2.06.02,4.11.01,6.17,0,.28.19.42.36.68Z"/><path class="cls-2" d="m159.89,154.15h-2.04c.38-.45.4-.95.4-1.44.01-1.67.02-3.34,0-5.01,0-.51-.07-1.04-.44-1.5,1.12,0,2.19-.01,3.26,0,.46,0,.9.15,1.28.43,1.13.84,1.05,2.38-.18,3.21-.24.16-.48.29-.77.36-.12.03-.26.06-.11.25.85,1.06,1.63,2.17,2.65,3.07.26.23.55.43.83.65-1.11.25-2.01,0-2.73-.92-.74-.95-1.46-1.9-2.1-2.91-.16-.25-.11-.34.17-.38.28-.04.55-.15.8-.29.73-.39,1-1,.8-1.84-.12-.51-.75-.89-1.47-.89-.01,0-.03,0-.04,0q-.75.01-.75.76c0,1.78,0,3.57.01,5.35,0,.39.04.77.43,1.1Z"/><path class="cls-2" d="m219.75,108.05c0,1.91,0,3.83,0,5.74,0,.33-.09.42-.41.4-.35-.03-.72-.03-1.07,0-.38.04-.44-.12-.43-.46.01-2.44,0-4.88,0-7.32,0-1.4,0-2.8,0-4.2,0-.25.04-.36.32-.34.41.03.83.03,1.24,0,.3-.02.34.1.34.36-.01,1.94,0,3.88,0,5.82Z"/><path class="cls-2" d="m131.75,154.16h-2.29c.49-.29.35-.6.23-.91-.22-.59-.46-1.17-.67-1.76-.08-.23-.21-.34-.47-.33-.81.01-1.63,0-2.44,0-.25,0-.39.09-.46.34-.17.55-.34,1.11-.59,1.64-.16.33-.19.68.21,1h-1.92c.85-.78,1.08-1.9,1.47-2.92.51-1.32,1.07-2.61,1.6-3.91.14-.35.32-.73-.08-1.1.57,0,1.1-.02,1.62,0,.41.02.43.43.52.68.52,1.45,1.1,2.89,1.72,4.29.34.76.59,1.55.97,2.29.13.26.37.42.58.69Zm-4.47-6.82c-.34.96-.77,1.82-1.04,2.74-.08.25-.03.34.23.33.58,0,1.17-.01,1.75,0,.28,0,.35-.08.24-.35-.27-.66-.52-1.33-.78-1.99-.09-.24-.16-.48-.41-.73Z"/><path class="cls-2" d="m181.96,154.15h-2.11c.51-.6-.07-1.07-.17-1.59-.04-.23-.19-.44-.27-.67-.27-.74-.27-.74-1.05-.74-.64,0-1.29,0-1.93,0-.23,0-.36.07-.44.3-.2.57-.43,1.12-.62,1.69-.12.35-.18.7.24,1.04h-1.93c-.01-.07-.03-.11-.02-.12.67-.6.88-1.46,1.21-2.24.63-1.51,1.24-3.03,1.86-4.55.14-.35.3-.7-.1-1.07.59,0,1.09,0,1.6,0,.23,0,.28.13.35.3.83,2.07,1.66,4.15,2.5,6.22.21.52.44,1.03.89,1.44Zm-4.36-3.76c.33,0,.66,0,.98,0,.12,0,.27.04.17-.2-.35-.84-.67-1.7-.99-2.55-.03-.09-.05-.16-.15-.17-.12-.01-.13.07-.16.16-.32.84-.64,1.68-.96,2.51-.07.19-.03.27.18.26.31,0,.63,0,.94,0Z"/><path class="cls-2" d="m93.21,154.16c.61-.43.82-.97,1.04-1.51.65-1.68,1.31-3.36,1.98-5.04.11-.28.1-.6.3-.87.12-.16-.12-.32-.16-.54.53,0,1.04,0,1.56,0,.27,0,.28.2.35.36.62,1.52,1.22,3.04,1.85,4.56.26.62.55,1.22.76,1.86.15.45.42.84.92,1.17h-2.3c.42-.28.26-.62.13-.96-.21-.56-.43-1.12-.64-1.68-.09-.25-.22-.36-.5-.35-.8.02-1.6.01-2.4,0-.27,0-.41.08-.49.35-.16.54-.36,1.07-.54,1.61-.13.36-.2.72.17,1.05h-2.02Zm4.08-3.76c.3,0,.6-.01.9,0,.29.01.35-.08.24-.35-.34-.81-.66-1.63-.99-2.44-.03-.08,0-.23-.15-.21-.09.01-.13.1-.16.18-.31.85-.63,1.7-.95,2.54-.07.19-.03.27.18.26.31,0,.63,0,.94,0Z"/><path class="cls-2" d="m64.78,154.16h-1.96c.58-.4.8-.96,1.03-1.51.6-1.49,1.19-3,1.8-4.49.19-.46.2-.99.5-1.41.11-.15-.07-.34-.23-.55.58,0,1.1,0,1.62,0,.24,0,.25.2.32.34.69,1.69,1.36,3.39,2.05,5.07.36.88.63,1.8,1.42,2.53h-2.23c.38-.29.27-.61.14-.94-.24-.6-.49-1.19-.7-1.79-.07-.2-.18-.26-.37-.26-.84,0-1.68,0-2.53,0-.17,0-.28.05-.35.24-.21.59-.45,1.17-.67,1.76-.16.42-.12.62.17,1.01Zm2.1-3.76c.31,0,.63,0,.94,0,.23,0,.26-.08.18-.28-.34-.85-.67-1.71-1-2.56-.02-.06-.08-.14-.13-.15-.11-.02-.13.1-.15.17-.32.82-.63,1.64-.94,2.45-.1.26-.04.38.25.37.29,0,.57,0,.86,0Z"/><path class="cls-2" d="m85.79,147.7c-.68-.61-1.37-.93-2.2-.85-.35.04-.67.15-.94.36-.53.4-.52,1.14.03,1.58.55.44,1.22.68,1.84.99.32.16.64.31.95.49,1.15.68,1.37,1.95.51,2.98-.9,1.08-2.13,1.24-3.43,1.12-.43-.04-.84-.15-1.25-.27-.22-.06-.33-.17-.37-.4-.04-.28-.12-.55-.19-.82-.02-.08-.09-.17,0-.23.08-.05.16.02.23.06.56.3,1.12.61,1.75.73.72.14,1.4.03,2.01-.43.86-.64.32-1.66-.39-1.96-.96-.41-1.94-.79-2.76-1.44-.65-.51-.88-1.97-.32-2.6.63-.72,1.36-1.02,2.28-1.01.41,0,.82,0,1.23-.02.31-.02.64.15.96.25.1.03.08.14.08.23,0,.37,0,.74,0,1.23Z"/><path class="cls-2" d="m122.55,147.56c-.33-.19-.63-.37-.93-.54-.63-.34-1.76-.19-2.25.29-.42.41-.43.94,0,1.35.37.37.86.56,1.31.79.53.27,1.09.51,1.61.81,1.3.76,1.42,2.23.3,3.25-1.08.98-2.37,1.01-3.7.79-.11-.02-.22-.05-.33-.07-.45-.07-.77-.26-.79-.77,0-.2-.08-.39-.18-.56-.03-.05-.02-.15.02-.2.06-.08.13,0,.18.04.29.21.62.33.94.45.83.32,1.71.52,2.57.07.34-.18.64-.38.67-.85.05-.65-.28-1.06-.8-1.27-.69-.28-1.26-.75-1.94-1.01-.74-.28-1.17-.88-1.49-1.55-.11-.24-.05-.6.03-.88.35-1.19,1.29-1.57,2.4-1.65.62-.04,1.24-.02,1.86,0,.45.01.6.19.6.63,0,.26,0,.51,0,.77,0,.03-.02.05-.05.11Z"/><path class="cls-2" d="m114.02,152.71c-.05.46-.27.87-.41,1.3-.05.16-.17.17-.3.17-1.54,0-3.08,0-4.68,0,.39-.47.42-1,.42-1.52,0-1.68,0-3.37,0-5.05,0-.48,0-.98-.49-1.4.2,0,.31,0,.43,0,1.27-.02,2.54.05,3.81-.04.13,0,.19.02.19.15,0,.06,0,.11,0,.17,0,.29.1.64-.03.84-.2.3-.46-.1-.69-.15-.59-.15-1.17-.02-1.76-.06-.18,0-.26.06-.26.25,0,.59,0,1.17,0,1.76,0,.24.13.28.33.28.49,0,.97,0,1.46-.01.18,0,.27.04.26.23,0,.03,0,.06,0,.09,0,.23.07.5-.03.67-.15.26-.39-.05-.61-.02-.35.05-.71.03-1.07,0-.28-.02-.34.1-.34.35.01.71.01,1.43,0,2.14,0,.29.1.38.4.4.9.07,1.79.15,2.65-.21.25-.1.49-.22.73-.33h0Z"/><path class="cls-2" d="m156.68,152.69c-.07.22-.13.36-.17.51q-.32.98-1.34.98c-1.14,0-2.28,0-3.43,0-.15,0-.31.04-.5-.06.44-.57.44-1.25.44-1.92-.01-1.58-.01-3.17-.02-4.75,0-.43-.05-.85-.47-1.27h4.39c.07.35,0,.78.03,1.37-.44-.52-.98-.41-1.46-.48-.37-.05-.75.1-1.14.07-.13-.01-.15.11-.15.21,0,.6,0,1.2,0,1.8,0,.22.12.26.3.26.47,0,.94.02,1.41-.01.31-.02.38.1.34.36,0,.03,0,.06,0,.09-.01.2.05.45-.05.58-.15.2-.3-.11-.48-.11-.44,0-.88-.01-1.33-.01-.18,0-.2.13-.2.26,0,.8,0,1.6,0,2.4,0,.16.04.28.23.29.95.08,1.91.17,2.83-.18.23-.09.45-.22.75-.37Z"/><path class="cls-2" d="m197.58,122.99c.54,0,1.08,0,1.63,0,.22,0,.3.07.3.3,0,2.78,0,5.56,0,8.34,0,.2-.05.28-.26.28-.47-.01-.94-.01-1.41,0-.2,0-.27-.07-.27-.27.01-2.88.01-5.76.02-8.64,0,0,.01.01.01.01h-.01Z"/><path class="cls-2" d="m91.6,154.16h-2.16c.34-.51.35-1.07.35-1.64,0-1.66,0-3.31,0-4.97,0-.33-.08-.45-.42-.45-.7.01-1.41-.07-2.06.39.03-.5.34-.89.26-1.36,1.72.14,3.42.04,5.13.07.17,0,.35-.04.51,0,.13.02.2-.24.32-.07.11.15.1.34,0,.49-.16.28-.27.58-.32.97-.61-.68-1.35-.43-2.04-.45-.18,0-.2.12-.2.26,0,1.87,0,3.74.01,5.61,0,.42.12.82.61,1.16Z"/><path class="cls-2" d="m103.52,154.18c.67-1.03.35-2.12.39-3.17.05-1.15,0-2.31.02-3.47,0-.35-.11-.44-.44-.44-.7,0-1.39-.06-2.08.45.1-.44.17-.76.24-1.09.06-.27.17-.37.48-.29.26.07.54.04.81.03,1.51-.02,3.03.05,4.54-.04.22-.01.22.06.18.21-.08.3-.17.6-.24.91-.05.21-.14.21-.3.08-.57-.46-1.23-.19-1.85-.22-.15,0-.14.16-.14.27,0,1.88,0,3.77,0,5.65,0,.36.24.6.41.87.11.18.08.25-.14.25-.6,0-1.19,0-1.87,0Z"/><path class="cls-2" d="m72.21,146.21h2.08c-.44.35-.44.79-.44,1.23,0,1.68,0,3.37,0,5.05,0,.71,0,.79.69.8.58,0,1.18.17,1.75-.05.44-.17.85-.39,1.38-.64-.21.53-.39.99-.57,1.44-.04.1-.13.14-.24.14-1.54,0-3.07,0-4.66,0,.3-.37.41-.74.41-1.17,0-1.85,0-3.71,0-5.56,0-.45-.1-.85-.42-1.23Z"/><path class="cls-2" d="m198.91,146.21h2.05c-.54.61-.41,1.33-.41,2.01-.01,1.56,0,3.11,0,4.67,0,.45.06.88.41,1.27h-2.01c.35-.37.4-.81.39-1.28,0-1.86,0-3.71,0-5.57,0-.39-.08-.76-.43-1.1Z"/><path class="cls-2" d="m197.46,120.67c0-.67.29-1.05.81-1.05,1.02,0,1.35.4,1.34,1.07,0,.4-.18.66-.43.93-.26.29-.65.02-.95.28-.19.17-.77-.71-.77-1.23Z"/><path class="cls-2" d="m117.06,123.63c0,.26,0,.52,0,.78-.25-.24-.09-.53-.08-.79,0,0,.02,0,.03,0,.01,0,.02.01.04.02Z"/><path class="cls-2" d="m132.73,108.31c.19.13.17.28.05.45-.12-.14-.21-.28-.05-.45Z"/><path class="cls-2" d="m113.49,120.11c-.12-.02-.28.1-.34-.11.13,0,.29-.12.34.11Z"/><path class="cls-2" d="m112.14,119.99c-.06.22-.23.1-.35.12.06-.21.22-.11.35-.12Z"/><path class="cls-1" d="m213.3,112.77s-.02-.03-.02-.05c0,.02,0,.04.02.05Z"/><path d="m210.53,110.25c1.4,0,2.79,0,4.19,0,.41,0,.95.19,1.19-.09.24-.28.09-.82.06-1.24-.08-1.25-.45-2.38-1.59-3.07-.89-.54-1.88-.72-2.92-.55-.02.04-.03.04-.05,0-.74.14-1.43.39-1.97.95-.71.74-1.1,1.61-1.18,2.64-.07.95-.11,1.89.18,2.82.2.62.49,1.24.95,1.65.46.41,1.06.76,1.72.86,1.15.18,2.31.23,3.44-.08,1.01-.27,1-.3,1-1.34,0-.06,0-.11,0-.17,0-.42-.06-.46-.47-.31-.52.19-1.05.36-1.62.37.01.12-.08.1-.14.1-.01,0-.02,0-.03,0-.02,0-.02-.03-.02-.05,0-.01,0-.02.02-.03-.36.16-.71.18-1.07,0,.07.06,0,.09-.04.09-.07.01-.08-.04-.06-.1-1.2-.18-1.76-.78-1.84-2-.19.01-.12-.1-.09-.19-.1-.35.17-.25.33-.25Zm-.3-1.7c.05-.87.87-1.78,1.78-1.82,1.49-.07,1.99.89,2.08,1.79.02.25-.04.33-.29.32-.56-.02-1.11,0-1.67,0-.54,0-1.08,0-1.63,0-.22,0-.28-.05-.27-.29Z"/><path d="m213.28,112.73s0,.04.02.05c0,0,.02,0,.03,0,.06,0,.15.02.14-.1-.06,0-.11,0-.17,0h0s0,0,0,0c-.01.01-.02.02-.02.03Z"/><path d="m213.3,112.69h0s-.02.02-.02.03c0-.01,0-.02.02-.03Z"/><path d="m210.29,110.69c-.02-.07.1-.2-.09-.19-.03.09-.1.21.09.19Z"/><path d="m212.2,112.78s.1-.03.04-.09c-.03,0-.07,0-.1,0-.02.06,0,.11.06.1Z"/><path class="cls-2" d="m130.94,105.29s-.09.05-.14,0c.05-.04.09-.05.14,0Z"/><path class="cls-2" d="m111.96,121.82s-.04-.07.01-.1c0,0,.03.03.05.05,0,.06-.02.07-.06.05Z"/><path class="cls-2" d="m113.19,121.78s.04-.05.05-.05c.05.02.05.05.02.09-.04.02-.07,0-.06-.04Z"/><path class="cls-2" d="m211.46,105.29s-.03.04-.05,0c.02-.04.03-.04.05,0Z"/><polygon class="cls-2" points="181.89 105.31 181.89 105.34 181.9 105.31 181.89 105.31"/><polygon class="cls-2" points="166.54 114.26 166.53 114.23 166.55 114.25 166.55 114.27 166.54 114.26"/><path class="cls-2" d="m132.43,105.32s0,0,0,0c0,0,0,0,0,0Z"/><path class="cls-2" d="m154.7,105.32s0,0,0,0c0,0,0,0,0,0Z"/><path class="cls-2" d="m156.78,105.32s0,0,0,0c0,0,0,0,0,0Z"/><polygon class="cls-2" points="139.2 103.54 139.19 103.55 139.2 103.54 139.2 103.54"/><polygon class="cls-2" points="154.27 131.93 154.29 131.91 154.28 131.93 154.26 131.93 154.27 131.93"/><path class="cls-2" d="m190.05,105.41s0,0,0,0c0,0,0,0,0,0Z"/><polygon class="cls-2" points="118.25 129.6 118.26 129.61 118.25 129.61 118.25 129.6"/><polygon class="cls-2" points="166.74 129.42 166.73 129.42 166.74 129.42 166.74 129.42"/><polygon class="cls-2" points="209.88 128.48 209.85 128.49 209.88 128.49 209.88 128.48"/><polygon class="cls-2" points="213.45 122.99 213.44 123.01 213.44 122.99 213.45 122.99"/><polygon class="cls-2" points="211.98 122.99 212 123.01 211.98 122.99 211.98 122.99"/><polygon class="cls-2" points="197.58 122.99 197.59 123 197.58 122.99 197.58 122.99"/><polygon class="cls-2" points="154.27 122.99 154.29 123.01 154.27 122.99 154.27 122.99"/><polygon class="cls-2" points="122.64 122.99 122.63 123 122.64 122.99 122.64 122.99"/><polygon class="cls-2" points="117.29 112.46 117.31 112.46 117.29 112.45 117.29 112.46"/><polygon class="cls-2" points="141.59 112.6 141.59 112.63 141.6 112.6 141.59 112.6"/><path class="cls-2" d="m132.84,114.18s0-.02,0-.03c.03.02.03.03,0,.03,0,0,0,0,0,0Z"/><polygon class="cls-2" points="175.29 120.15 175.3 120.16 175.28 120.16 175.29 120.15"/><path class="cls-2" d="m188.57,114.18s0-.02,0-.03c0,0,0,.02,0,.03,0,0,0,0,0,0Z"/><path class="cls-2" d="m204.78,114.17s0-.02.01-.03c.03.02.03.03,0,.03,0,0,0,0,0,0Z"/><polygon class="cls-2" points="119.21 114.28 119.21 114.27 119.21 114.28 119.21 114.28"/><polygon class="cls-2" points="114.02 152.7 114.05 152.68 114.02 152.71 114.02 152.7"/><path class="cls-2" d="m66.61,71.44s-.03.04-.04.05c0,0-.02-.02-.03-.02.02-.01.04-.02.06-.04,0,0,0,0,0,0Z"/><path class="cls-2" d="m207.84,128.27h-.01s.01-.02.01-.02c.02,0,.05.01.07.02-.02,0-.05,0-.07,0Z"/><path class="cls-2" d="m150.07,106.61c-.42-.52-.95-.91-1.56-1.11-.77-.25-1.58-.32-2.39-.23-.07.07-.1.05-.11-.04-.28.11-.55.25-.84.34-1.25.37-1.84,1.34-2.22,2.47-.25.75-.22,1.55-.17,2.33.09,1.4.59,2.62,1.81,3.39.41.26.81.64,1.35.63.3,0,.59-.07.89-.05,1.36.09,2.51-.35,3.34-1.45.52-.68.77-1.46.84-2.33.12-1.43,0-2.78-.94-3.95Zm-1.49,5.32c-.36.66-1,.76-1.65.83-1,.11-1.67-.53-1.96-1.28-.21-.53-.31-1.08-.25-1.64-.05-.61.04-1.17.24-1.73.39-1.1,1.24-1.33,2.28-1.24,1.24.11,1.62.99,1.78,2.03.16,1.05.08,2.07-.45,3.03Z"/><path class="cls-2" d="m146.11,105.26c-.02-.06-.07-.05-.11-.04.01.08.05.11.11.04Z"/><polygon class="cls-2" points="117.29 112.45 117.29 112.46 117.31 112.46 117.29 112.45"/><polygon class="cls-2" points="119.21 114.27 119.21 114.28 119.21 114.28 119.21 114.27"/><path class="cls-2" d="m124.63,107.73c-.03-.89-.44-1.67-1.31-2.08-.37-.17-.76-.29-1.14-.43,0,.03.01.08-.05.04-.61-.03-1.21-.06-1.82.04,0,0,0,0,0,0,0,0,0,.02,0,.02v-.02c-.71.07-1.37.28-2.01.56-.2.08-.23.28-.13.47.14.27.3.54.43.81.08.16.14.19.31.12.55-.22,1.11-.44,1.71-.5.48-.05.97-.05,1.39.16.64.32.9,1.03.75,1.74-.04.18-.15.14-.25.14-.74,0-1.47,0-2.21.1-.8.1-1.57.27-2.21.79-.46.37-.8.81-.84,1.44-.03.44,0,.88.03,1.32h0s0,0,0,0c0,0,.02,0,.02,0h-.02c.08.85,1.02,1.68,1.92,1.83,0,0,0-.02,0-.02v.02s0,0,0,0c0,0,0,0,0,0,1.43.16,2.75-.03,3.7-1.32.05.13.09.2.12.28q.31.97,1.34.93s.06,0,.09,0c.17.01.22-.08.21-.23,0-2.07.03-4.14-.04-6.21Zm-1.86,2.98c0,1.13-.49,1.71-1.57,2.06-.48.15-.89.18-1.35-.03-.97-.44-.84-1.75-.06-2.24.36-.22.75-.35,1.15-.39.39-.04.78-.18,1.11-.11q.73,0,.73.7Z"/><path class="cls-2" d="m122.18,105.23s-.03.03-.05.04c.06.04.04-.01.05-.04Z"/><polygon class="cls-2" points="120.32 105.31 120.32 105.31 120.33 105.31 120.32 105.31"/><polygon class="cls-2" points="120.33 105.31 120.32 105.31 120.32 105.33 120.33 105.31"/><path class="cls-2" d="m97.4,82.94c0,2.63,0,5.26,0,7.89,0,.59-.06.63-.64.57-1.61-.17-3.22-.33-4.83-.51-1.88-.21-3.77-.45-5.65-.67-1.07-.13-2.14-.26-3.21-.37-.41-.04-.56-.21-.56-.63.01-5.59,0-11.17,0-16.76,0-.53.1-.61.61-.52,3.13.55,6.27,1.1,9.4,1.65,1.44.25,2.87.51,4.31.76.41.07.58.24.57.7-.03,2.63-.01,5.26-.01,7.89Zm-3-.54c-.01-1.79-.42-3.57-1.39-5.19-.64-1.07-1.41-2-2.63-2.46-1.23-.47-2.61-.29-3.56.67-.4.41-.77.85-1.01,1.38-1.51,3.29-1.19,6.49.56,9.59.5.88,1.18,1.61,2.07,2.13.68.4,1.42.64,2.2.47,1.23-.27,2.08-1.07,2.69-2.14.77-1.35,1.06-2.82,1.07-4.45Zm1.24.78c0-2.11,0-4.23,0-6.34,0-.56-.2-.78-.74-.87-.53-.09-1.05-.2-1.58-.31-.14-.03-.31-.08-.4.04-.1.13-.04.3.06.44.06.09.14.18.2.28,1.98,3.19,2.4,6.55.97,10.06-.59,1.45-1.62,2.57-3.16,3.12-.19.07-.53.04-.48.36.05.28.36.18.57.25.01,0,.03,0,.04,0,.94.11,1.89.2,2.82.34,1.18.17,1.69-.24,1.69-1.42,0-1.98,0-3.97,0-5.95Zm-12.04-9.26c-.44,0-.52.29-.53.61-.01.83,0,1.66,0,2.48,0,.18.01.36.22.41.22.06.3-.11.38-.27.25-.52.56-.99.94-1.43.32-.37.69-.67,1.09-.96.26-.19.26-.43.01-.48-.71-.14-1.42-.25-2.1-.37Zm-.53,13.4c0,.43,0,.86,0,1.28,0,.33.15.59.49.67.58.14,1.18.18,1.78.22.16.01.31-.06.38-.23.07-.17,0-.31-.13-.42-.94-.78-1.55-1.78-2.01-2.89-.06-.14-.13-.33-.32-.28-.18.05-.19.23-.19.39,0,.41,0,.83,0,1.24Z"/><path class="cls-2" d="m78.24,80.79c0,2.77,0,5.54,0,8.32,0,.59-.18.72-.77.78-1.1.1-2.2.24-3.3.37-.89.1-1.77.2-2.66.31-1.09.13-2.19.28-3.28.4-1.09.12-2.18.2-3.26.3-.34.03-.68.09-1.02.13-.47.06-.62-.07-.62-.55,0-1.27.01-2.54.01-3.81,0-3.89,0-7.77,0-11.66,0-.63.21-.9.84-1.02,3.36-.61,6.73-1.2,10.09-1.8,1.12-.2,2.25-.4,3.37-.61.52-.1.61-.03.61.5,0,2.79,0,5.57,0,8.36Zm-2.37.17c0-.59-.07-1.16-.17-1.74-.2-1.14-.52-2.22-1.22-3.15-1.38-1.85-3.28-2.18-5.15-.74-1.19.91-1.86,2.18-2.38,3.54-.72,1.89-.79,3.84-.41,5.79.29,1.48.97,2.79,2.21,3.73.89.67,1.85.83,2.92.42.89-.34,1.59-.9,2.15-1.63,1.42-1.83,1.99-3.94,2.05-6.21Zm-10.75,2.18c0,2.13,0,4.25,0,6.38,0,.7.4,1.1,1.09,1.05.95-.07,1.9-.15,2.85-.29.33-.05.69.03,1-.16.08-.05.19-.09.17-.22-.02-.1-.12-.11-.19-.15-.24-.12-.5-.16-.74-.3-1.77-1.02-2.81-2.54-3.24-4.53-.3-1.37-.36-2.76-.18-4.13.21-1.59.8-3.07,1.72-4.41.06-.09.14-.18.19-.28.06-.12.07-.25,0-.37-.08-.13-.23-.1-.35-.08-.52.1-1.05.21-1.57.31-.65.14-.72.22-.72.87,0,2.1,0,4.2,0,6.3Zm12.54-7.36c0-.4,0-.8,0-1.2,0-.58-.24-.75-.82-.63-.54.11-1.08.21-1.61.31-.13.02-.3-.05-.36.15-.06.19.07.29.2.38.89.6,1.52,1.4,1.99,2.35.08.15.15.33.37.28.2-.05.23-.22.23-.41,0-.41,0-.83,0-1.24Zm0,11.58c0-.4,0-.8,0-1.2,0-.18.03-.42-.19-.47-.24-.06-.28.19-.35.36-.46,1.06-1.05,2.03-1.94,2.78-.14.12-.24.26-.17.45.08.19.23.28.44.26.56-.08,1.12-.13,1.68-.23.36-.07.51-.34.52-.69,0-.41,0-.83,0-1.24Z"/><path class="cls-2" d="m92.9,78.89c.06.22-.08.36-.17.51-.78,1.31-1.65,2.57-2.59,3.77-.31.4-.37.4-.71,0-.46-.53-.89-1.08-1.27-1.67-.08-.13-.2-.25-.18-.45.17-.03.29.09.41.17.34.24.7.46.99.74.35.35.54.21.79-.11.7-.9,1.45-1.76,2.23-2.6.14-.15.27-.33.5-.38Z"/><path class="cls-2" d="m74.29,78.67c.04.19-.09.3-.17.42-.95,1.39-2.01,2.69-3.15,3.93-.24.26-.41.27-.67.02-.59-.58-1.15-1.18-1.65-1.85-.07-.1-.18-.19-.13-.38.52.15.93.48,1.36.76.75.49.75.5,1.38-.14.86-.87,1.7-1.77,2.63-2.57.11-.09.2-.24.4-.2Z"/></svg>