<?xml version="1.0" encoding="UTF-8"?><svg id="Layer_1" xmlns="http://www.w3.org/2000/svg" viewBox="0 0 270 235"><defs><style>.cls-1{fill:#1d1d1b;}</style></defs><path class="cls-1" d="m116.22,91.5l2.62-12.84h2.94l-3.94,17.06h-2.84l-3.25-12.46-3.32,12.46h-2.85l-3.94-17.06h2.94l2.65,12.82,3.26-12.82h2.48l3.22,12.84Z"/><path class="cls-1" d="m137.57,87.63c0,1.67-.29,3.14-.87,4.4s-1.4,2.23-2.48,2.91-2.31,1.01-3.71,1.01-2.62-.34-3.7-1.01-1.92-1.64-2.51-2.89-.89-2.69-.9-4.32v-.96c0-1.66.29-3.13.88-4.41s1.42-2.25,2.5-2.92,2.31-1.01,3.7-1.01,2.62.33,3.7,1,1.9,1.63,2.49,2.88.88,2.71.89,4.38v.95Zm-2.96-.89c0-1.89-.36-3.34-1.07-4.35s-1.73-1.51-3.04-1.51-2.28.5-3.01,1.51-1.09,2.42-1.11,4.26v.98c0,1.88.37,3.32,1.1,4.35s1.74,1.54,3.04,1.54,2.32-.5,3.03-1.5,1.06-2.46,1.06-4.38v-.89Z"/><path class="cls-1" d="m146.8,89.15h-3.3v6.56h-2.96v-17.06h6c1.97,0,3.49.44,4.56,1.32,1.07.88,1.61,2.16,1.61,3.84,0,1.14-.28,2.1-.83,2.87-.55.77-1.32,1.36-2.3,1.78l3.83,7.11v.15h-3.18l-3.42-6.56Zm-3.3-2.39h3.05c1,0,1.78-.25,2.34-.76s.84-1.19.84-2.07-.26-1.62-.78-2.12-1.29-.76-2.33-.77h-3.13v5.72Z"/><path class="cls-1" d="m160.4,88.34l-1.93,2.05v5.32h-2.96v-17.06h2.96v8l1.64-2.03,4.99-5.98h3.59l-6.34,7.56,6.7,9.5h-3.52l-5.13-7.37Z"/><path class="cls-1" d="m127.96,124.51h-2.95v-17.06h2.95v17.06Z"/><path class="cls-1" d="m145.14,124.51h-2.96l-7.61-12.11v12.11h-2.96v-17.06h2.96l7.63,12.15v-12.15h2.94v17.06Z"/><path class="cls-1" d="m79.33,146.99v6.33h-2.96v-17.06h6.53c1.91,0,3.42.5,4.54,1.49,1.12.99,1.68,2.31,1.68,3.94s-.55,2.97-1.65,3.91-2.63,1.4-4.61,1.4h-3.53Zm0-2.39h3.56c1.05,0,1.86-.25,2.41-.74s.83-1.21.83-2.15-.28-1.66-.84-2.21-1.34-.83-2.32-.85h-3.64v5.95Z"/><path class="cls-1" d="m97.98,146.75h-3.3v6.56h-2.96v-17.06h6c1.97,0,3.49.44,4.56,1.32,1.07.88,1.61,2.16,1.61,3.84,0,1.14-.28,2.1-.83,2.87-.55.77-1.32,1.36-2.3,1.78l3.83,7.11v.15h-3.18l-3.42-6.56Zm-3.3-2.39h3.05c1,0,1.78-.25,2.34-.76s.84-1.19.84-2.07-.26-1.62-.78-2.12-1.29-.76-2.33-.77h-3.13v5.72Z"/><path class="cls-1" d="m120.3,145.23c0,1.67-.29,3.14-.87,4.4s-1.4,2.23-2.48,2.91-2.31,1.01-3.71,1.01-2.62-.34-3.7-1.01-1.92-1.64-2.51-2.89-.89-2.69-.9-4.32v-.96c0-1.66.29-3.13.88-4.41s1.42-2.25,2.5-2.92,2.31-1.01,3.7-1.01,2.62.33,3.7,1,1.9,1.63,2.49,2.88.88,2.71.89,4.38v.95Zm-2.96-.89c0-1.89-.36-3.34-1.07-4.35s-1.73-1.51-3.04-1.51-2.28.5-3.01,1.51-1.09,2.42-1.11,4.26v.98c0,1.88.37,3.32,1.1,4.35s1.74,1.54,3.04,1.54,2.32-.5,3.03-1.5,1.06-2.46,1.06-4.38v-.89Z"/><path class="cls-1" d="m136.33,151.1c-.62.8-1.47,1.41-2.57,1.83s-2.34.62-3.73.62-2.7-.32-3.8-.97-1.95-1.58-2.55-2.78-.91-2.62-.93-4.22v-1.34c0-2.58.62-4.59,1.85-6.04s2.96-2.17,5.17-2.17c1.9,0,3.41.47,4.52,1.41s1.79,2.29,2.02,4.06h-2.91c-.33-2.05-1.52-3.08-3.57-3.08-1.33,0-2.34.48-3.03,1.43-.69.96-1.05,2.36-1.07,4.21v1.31c0,1.84.39,3.27,1.17,4.29.78,1.02,1.86,1.53,3.24,1.53,1.52,0,2.59-.34,3.23-1.03v-3.34h-3.52v-2.25h6.47v6.54Z"/><path class="cls-1" d="m145.86,146.75h-3.3v6.56h-2.96v-17.06h6c1.97,0,3.49.44,4.56,1.32,1.07.88,1.61,2.16,1.61,3.84,0,1.14-.28,2.1-.83,2.87-.55.77-1.32,1.36-2.3,1.78l3.83,7.11v.15h-3.18l-3.42-6.56Zm-3.3-2.39h3.05c1,0,1.78-.25,2.34-.76s.84-1.19.84-2.07-.26-1.62-.78-2.12-1.29-.76-2.33-.77h-3.13v5.72Z"/><path class="cls-1" d="m164.54,145.7h-7.01v5.25h8.19v2.37h-11.16v-17.06h11.07v2.39h-8.11v4.71h7.01v2.34Z"/><path class="cls-1" d="m177.05,148.92c0-.75-.26-1.33-.79-1.73s-1.48-.82-2.85-1.23-2.47-.88-3.28-1.38c-1.55-.98-2.33-2.25-2.33-3.82,0-1.38.56-2.51,1.68-3.4s2.58-1.34,4.37-1.34c1.19,0,2.25.22,3.18.66s1.66,1.06,2.19,1.87.8,1.71.8,2.69h-2.95c0-.89-.28-1.59-.84-2.09s-1.36-.76-2.4-.76c-.97,0-1.72.21-2.26.62s-.8.99-.8,1.73c0,.62.29,1.15.87,1.56s1.53.82,2.86,1.22,2.39.84,3.2,1.35,1.39,1.08,1.77,1.73.56,1.42.56,2.29c0,1.42-.54,2.55-1.63,3.39s-2.57,1.26-4.44,1.26c-1.23,0-2.37-.23-3.4-.69s-1.84-1.09-2.41-1.89-.86-1.74-.86-2.81h2.96c0,.97.32,1.72.96,2.25s1.56.8,2.75.8c1.03,0,1.81-.21,2.33-.63s.78-.97.78-1.66Z"/><path class="cls-1" d="m191.54,148.92c0-.75-.26-1.33-.79-1.73s-1.48-.82-2.85-1.23-2.47-.88-3.28-1.38c-1.55-.98-2.33-2.25-2.33-3.82,0-1.38.56-2.51,1.68-3.4s2.58-1.34,4.37-1.34c1.19,0,2.25.22,3.18.66s1.66,1.06,2.19,1.87.8,1.71.8,2.69h-2.95c0-.89-.28-1.59-.84-2.09s-1.36-.76-2.4-.76c-.97,0-1.72.21-2.26.62s-.8.99-.8,1.73c0,.62.29,1.15.87,1.56s1.53.82,2.86,1.22,2.39.84,3.2,1.35,1.39,1.08,1.77,1.73.56,1.42.56,2.29c0,1.42-.54,2.55-1.63,3.39s-2.57,1.26-4.44,1.26c-1.23,0-2.37-.23-3.4-.69s-1.84-1.09-2.41-1.89-.86-1.74-.86-2.81h2.96c0,.97.32,1.72.96,2.25s1.56.8,2.75.8c1.03,0,1.81-.21,2.33-.63s.78-.97.78-1.66Z"/></svg>