<?xml version="1.0" encoding="UTF-8"?><svg id="Layer_1" xmlns="http://www.w3.org/2000/svg" xmlns:xlink="http://www.w3.org/1999/xlink" viewBox="0 0 270 235"><defs><style>.cls-1{fill:none;}.cls-2{clip-path:url(#clippath);}.cls-3{fill:#1d1d1b;}</style><clipPath id="clippath"><rect class="cls-1" x="69.44" y="77" width="131.11" height="80.99"/></clipPath></defs><g class="cls-2"><path class="cls-3" d="m196.24,147.76c.34.17.66.35,1.01.49.58.24,1.14.5,1.77.65.44.1.99.06,1.53-.85-.87-.75-1.75-1.5-2.63-2.27-1.14-1-2.69-.94-3.72-2.05.6.64-3.53-3.18-3.23-3.03-.45-.22-1.03-.34-1.32-.7-.65-.82-1.82-1.05-2.43-1.92-.34-.48-.82-.86-1.3-1.21-.37-.28-.87-.29-1.59.31,2.72,2.93,5.84,5.39,8.13,8.66-.09.1-.18.2-.27.3-.48-.27-1-.5-1.43-.82-.72-.53-1.4-1.12-2.08-1.7-.77-.66-1.52-1.34-2.28-2.02-.5-.44-.6-.46-1.37-.21-.01.07-.07.18-.04.21,2.74,2.18,5.49,4.35,8.25,6.52.8.63,1.63,1.23,2.46,1.83.15.11.29.26.49.25.22-.01.51-.18.76-.29,0-.23.1-.53.01-.67-.24-.35-.57-.61-.84-.94-.07-.08-.04-.25-.06-.37.06-.06.12-.13.17-.19"/><path class="cls-3" d="m185.63,154.37c-.19.33-.72.97-.88,1.31-.27.56-.57,1.11-.75,1.73-.13.44-.11,0,.77.59.8-.83.94-1.34,1.75-2.16,1.06-1.08,2.39-2.24,3.56-3.21,1.06-.88,1.55-1.57,2.24-2.77.25-.44,1.05-1.34,1.44-1.61.85-.61,1.16-1.75,2.05-2.32.5-.31-.09.22.3-.24.3-.35-.65.14-1.21-.62-3.08,2.55-3.74,3.54-7.13,5.64-.09-.09-.19-.19-.28-.28.3-.46.55-.97.9-1.38.57-.69,1.19-1.34,1.81-1.98.7-.73,1.43-1.44,2.14-2.16.47-.47.49-.57.29-1.35-.07-.02-.18-.08-.2-.05-2.33,2.62-4.66,5.23-6.98,7.86-.67.76-1.32,1.56-1.97,2.35-.12.14-1.27,1.59-1.27,1.79,0,.22.16.52.24.78.23.02.52.13.66.05.36-.22,1.64-1.85,1.97-2.1.08-.06.25-.03.38-.04.06.06.12.12.18.18"/><path class="cls-3" d="m94.53,152.55c-1.85-.12-3.72-.22-5.55-.36-2.99-.24-6.03-.44-8.9-.77-2.01-.23-3.87-.65-2.48-1.66,5.98.08,11.99.17,17.99.25,7.88.1,15.78.3,23.65.25,7.15-.05,13.76.62,20.57,1.05,2.49.16,5.02.48,7.46.43,5.41-.11,10.56.53,15.98.36,3.04-.1,6.17-.03,9.24.06,2.37.06,4.28.4,4.71,1.32-20.76.15-41.31-.31-61.73.37-.04.13-.08.26-.12.39,2.75.15,5.49.35,8.27.43,4.62.13,9.26.2,13.9.27,5.26.08,10.53.13,15.79.18,3.45.04,3.9.1,5.8.81-.2.06-.42.17-.61.17-18.1-.39-36.21-.79-54.31-1.2-5.26-.12-10.52-.28-15.77-.43-.93-.03-2.01-.02-2.71-.17-.77-.16-1.18-.48-1.75-.73.8-.16,1.56-.44,2.41-.47,2.15-.08,4.34-.03,6.51-.07.54,0,1.07-.14,1.6-.22.02-.08.04-.17.05-.25"/><path class="cls-3" d="m175.07,147.78c1.85-.12,3.72-.22,5.55-.36,2.99-.24,6.03-.44,8.9-.77,2.01-.23,3.87-.65,2.48-1.66-5.98.08-11.99.17-17.99.25-7.88.1-15.78.3-23.65.25-7.15-.05-13.76.62-20.57,1.05-2.49.16-5.02.48-7.46.43-5.41-.11-10.56.53-15.98.36-3.04-.1-6.17-.03-9.24.06-2.37.06-4.28.4-4.71,1.32,20.76.15,41.31-.31,61.73.37.04.13.08.26.12.39-2.75.15-5.49.35-8.27.43-4.62.13-9.26.2-13.9.27-5.26.08-10.53.13-15.79.18-3.45.04-3.9.1-5.8.81.2.06.42.17.61.17,18.1-.39,36.21-.79,54.31-1.2,5.26-.12,10.52-.28,15.77-.43.93-.03,2.01-.02,2.71-.17.77-.16,1.18-.48,1.75-.73-.8-.16-1.56-.44-2.41-.47-2.15-.08-4.34-.03-6.51-.07-.54,0-1.07-.14-1.6-.22-.02-.08-.04-.17-.05-.25"/><path class="cls-3" d="m184.84,103.8c-.61-1.31.06-2.54.15-3.79.09-1.23.39-2.45.6-3.68.16.01.32.02.48.03,0,2.54-.94,4.94-1.24,7.44m-.74,4.43c-.38-.62-.34-1.17.02-1.67.13.04.26.08.38.12l-.41,1.55Zm-.94,5.99c-.1-.02-.21-.03-.31-.05.01-1.61.54-3.14.72-4.72.1.02.21.05.31.07-.24,1.57-.48,3.14-.72,4.7m.22-13.21c0,1.12.3,2.28-.59,3.19.2-1.06.39-2.13.59-3.19m-2.3,16.45c-.09-3.29.54-6.47.99-9.67.17.02.33.05.5.07-.5,3.2-.99,6.4-1.49,9.6m.38,7.77l-.26-.05c.08-.37.17-.74.25-1.11.07.01.14.03.21.04-.07.37-.14.75-.21,1.12m-.77,4.18c-.07-.01-.13-.03-.2-.04.14-.66.27-1.33.41-1.99l.16.07-.37,1.96Zm.09-24.93c.09.08.19.16.33.28-.15.14-.25.23-.35.32-.06-.12-.15-.24-.16-.37,0-.07.12-.15.18-.23m-13.1,5.73c.86-1.63,2.16-.49,3.26-.67-1.09.22-2.17.45-3.26.67m-12.57,22.09c-.23-1.02-.35-.88-.36-1.95-.06-3.59.47-7.18.41-10.77-.07-4.97-.42-9.94-.66-14.91-.1-2.12-.26-4.23-.34-6.34-.09-2.18.66-3.35,2.32-3.87,1.26-.39,2.53-.75,3.73-1.3,1.32-.6,2.6-.42,4.01-.3-.23,1.42-.55,2.71-.63,4.01-.24,4.06-.38,8.13-.59,12.2-.05.94-.23,1.87-.35,2.81-.04.31-.11.65-.05.94.55,2.7-.12,5.38-.08,8.07.02,1.53-.17,3.06-.2,4.58-.06,2.54-.1,5.08-.09,7.62,0,.36.22.87.5,1.05.46.29,1.03.22,1.4-.31.09-.12.16-.25.24-.39.07.11.12.2.17.29.24.41.05,1.27.81,1.11.28-.06.44-.66.64-1.1.04-.08.07-.21.07-.3.1-2.38.2-4.76.3-7.13.16-3.7.31-7.4.47-11.11,0-.09.09-.19.17-.35,2.28.19,4.22-.99,5.9-2.23,1.95-1.44,4.02-2.52,6.18-3.49.36-.16.76-.24,1.12-.35-.44,4.71-1.01,9.32-1.25,13.95-.24,4.68-1.58,9.22-1.77,14.04.92.01,1.5-.07,1.67-.88.12-.57.17-1.15.31-1.71.14-.55.37-1.07.56-1.6-.01,2.19-1.02,4.19-.69,6.44,1.07-.14,1.36-.84,1.51-1.65.09-.52.1-1.06.25-1.56,1.11-3.78,2.26-10.13,2.97-14.01.33-1.78.67-3.56,1.03-5.34.49-2.43,1.03-4.84,1.54-7.27.67-3.19,1.31-6.39,2-9.57.37-1.7.86-3.37,1.24-5.07.7-3.09,1.36-6.18,2.06-9.27.35-1.54.75-3.08,1.12-4.62.11-.46.24-.99-.36-1.22-.65-.25-.99.19-1.23.69-.18.38-.32.78-.44,1.19-.18.61-.31,1.23-.51,1.83-.08.23-.29.41-.63.85.09-2.17.16-4.01.25-5.85.02-.5.03-.98-.58-1.13-.69-.17-.96.28-1.11.84-.49,1.9-1.33,3.67-1.96,5.51-1.88,5.45-3.16,11.07-4.16,16.74-.48,2.7-2.4,4.31-3.97,6.21-.03.02-.07.05-.1.07-1.46.48-2.89,1.13-4.39,1.41-2.09.39-4.23.51-6.45.75.09-5.22.19-10.5.28-15.75,1.64-.94,1.99-2,.82-3.09-.69-.64-.82-1.26-.82-2.06,0-.5-.13-1-.76-1.01-.62-.01-.73.49-.85.97-.32,1.19-.66,2.38-.99,3.54-4,.16-7.8.14-11.55.82-3.32.6-6.68,1.06-10.02,1.58-.47.07-.8.27-.76.81.04.56.46.72.9.66,1.05-.15,2.08-.4,3.12-.57.68-.11,1.36-.17,2.05-.25.67-.08,1.34-.17,2.02-.26l.04.32c-.5.13-1,.25-1.49.41-2.76.88-5.5,1.87-8.46,1.86-.57,0-1.15.18-1.71.33-.66.18-1,.57-.69,1.38.3.08.75.06.97.28.74.7,1.47.52,2.33.25,3.02-.96,6.07-1.84,9.11-2.73.49-.14,1.01-.18,1.67-.3,0,.65.03,1.14-.01,1.63-.2,2.52-.43,5.03-.5,7.55-.11,4.21-.12,8.43.01,12.65.12,3.69.44,7.38.68,11.07.06.95.21,1.89.24,2.84.06,1.86,2.59,3.82,2.68,1.94"/><path class="cls-3" d="m92.5,140.26c-.57-7.04-1.13-14.08-1.69-21.13,0-.12.15-.25.24-.4.93,2.1,2.35,19.51,1.45,21.52m-.29-29.96c-.04.32-.09.64-.13.95-.11-.03-.22-.06-.33-.08.15-.29.31-.58.46-.87m-10.14-2.11c1.39.91,2.08,1.92,2.35,3.51-.79-1.17-1.57-2.34-2.35-3.51m-8.96-11.52c1.49,1.18,6.5,8.52,7.83,11.62-3.22-3.39-7.51-8.81-7.83-11.62m13.29,18.91c.63.8.78,1.66.82,2.57.08,1.74.18,3.48.29,5.22.24,3.96.45,7.93.73,11.89.08,1.1.31,2.19.53,3.28.05.26.32.47.48.68.92-.33.79-1.05.8-1.64.02-2.01.02-4.02-.06-6.03-.14-3.49-.35-6.97-.53-10.45.37,1.16.54,2.34.64,3.52.3,3.69.53,7.38.88,11.06.21,2.26.56,4.5.93,6.74.06.38.53.69.81,1.03.38-.32.96-.57,1.1-.97.27-.73.28-1.55.39-2.33.09-.65.17-1.3.25-1.95.09,0,.19.02.28.02.1.9.21,1.8.31,2.71.12,0,.24,0,.36,0,.1-.7.3-1.4.28-2.09-.07-2.06-.2-4.11-.34-6.16-.27-3.69-.56-7.38-.85-11.07-.07-.84-.19-1.68-.23-2.53-.04-.7-.27-1.24-.94-1.52-.64-.27-.86-.79-.77-1.42.09-.66.22-1.34.45-1.96.24-.64.7-1.19.94-1.83,1.64-4.34,3.16-8.73,4.41-13.21.92-3.3,2.07-6.53,3.1-9.8.21-.66.36-1.33.53-1.99.16-.64-.09-.99-.85-1.11-.65,1.96-1.29,3.86-1.93,5.77.04-1.16.31-2.23.6-3.29.65-2.39,1.31-4.78,1.96-7.18.15-.56.33-1.13-.43-1.69-.21.26-.51.48-.59.76-.96,3.41-1.96,6.81-2.8,10.25-1.43,5.84-2.95,11.65-4.76,17.38-.19.62-.57,1.18-.89,1.76.37-1.47.72-2.95,1.1-4.42,1.18-4.55,2.37-9.09,3.54-13.64.17-.65.28-1.32-.62-1.91-1.53,3.25-2.12,6.69-3.28,9.93.49-3.22,1.09-6.41,1.69-9.6.37-1.97.73-3.94,1.1-5.92.07-.38.1-.82-.43-.81-.2,0-.51.36-.57.6-.64,2.88-1.32,5.76-1.84,8.67-.78,4.37-1.4,8.76-2.5,13.07-.59,2.3-1.22,4.55-2.39,6.75-.19-.36-.35-.62-.47-.9-1.08-2.47-2.14-4.94-3.23-7.41-1.54-3.52-3.09-7.05-4.66-10.56-.19-.43-.55-.79-.82-1.16-.84.43-.7.98-.56,1.49.51,1.94,1.04,3.87,1.58,5.8.2.73.44,1.44.67,2.18-1.89-2.15-3.72-4.24-5.58-6.31-.23-.26-.6-.4-.92-.55-.51-.25-1.03-.47-1.54-.7-.3-.13-.61-.26-1.18-.5.77,4.51,2.63,8.18,5.36,11.49-1.39-1.36-2.63-2.82-3.85-4.3-.84-1.01-1.62-2.07-2.49-3.05-.22-.25-.65-.3-.98-.44,4.07,6.73,9.43,12.08,15.77,16.32"/><path class="cls-3" d="m109.84,95.81c-.29-.18-.44-.32-.61-.35-.08-.02-.3.19-.28.24.06.17.17.4.31.45.11.04.3-.16.59-.34m-2.06,1.08c-.25-.87-.6-.86-1.02-.38-.07.08-.04.26-.07.5.37-.04.66-.07,1.09-.12m3.01.23q-1.39.63-.8,2.39c1.4-.96,1.41-1,.8-2.39m2.83,40.48c-1.49.96-2.77,1.78-4.12,2.64.42.49.78,1,1.23,1.44.52.51,1.26.45,1.59-.18.62-1.19,1.1-2.45,1.3-3.9m3.18-12.29c.1,0,.19,0,.29,0,.12-1.56.35-3.12.36-4.67.04-6.67-.26-13.31-2.01-19.8-.29-1.06-.64-2.12-1.11-3.12-.41-.88-1.18-1.31-2.33-1.04.29.66.23,1.4,1.01,1.72.99.41,1.4,1.25,1.55,2.24.3,2.03.62,4.06.88,6.1.75,5.93,1.24,11.88,1.27,17.86,0,.23.06.47.09.7m-3.39-24.06c-.11.02-.22.04-.32.05.18,1.38.35,2.76.53,4.14.76,5.98,1.37,11.96.98,18.01-.24,3.61-.91,7.11-2.12,10.51-.41,1.16-.86,2.3-1.29,3.45,2.22-1.42,3.25-3.64,3.79-5.97.44-1.87.41-3.87.45-5.82.15-6.73-.56-13.41-1.28-20.08-.16-1.44-.49-2.86-.73-4.29m-6.33,36.31c-.05-.49-.04-.81-.13-1.1-.97-3.3-1.54-6.67-2.03-10.07-.87-5.93-1.28-11.86-.35-17.82.51-3.23.9-6.49,2.58-9.41.09-.16.07-.38.12-.65-.92-.14-1.36.37-1.65,1.01-.28.62-.5,1.28-.68,1.94-1.05,4.02-1.23,8.15-1.43,12.26-.2,4.17-.1,8.36-.12,12.54,0,2.66.37,5.28,1.2,7.81.44,1.34,1.07,2.6,2.49,3.49m3.99-2.98c.48-1.31,1.03-2.6,1.42-3.94,1.07-3.69,1.34-7.5,1.24-11.3-.15-5.8-.53-11.59-1.58-17.31-.12-.63-.29-1.26-.48-2.08-1.04,1.04-1.48,1.95-1.33,3.18.33,2.67.65,5.34.84,8.03.55,7.79.88,15.59-.11,23.43m-2.71-34.89c-1.87,3.26-2.16,6.71-2.74,10.08-.2,1.14-.31,2.31-.3,3.47.03,2.69.1,5.38.26,8.07.27,4.71,1.04,9.35,2.23,13.91.14.52.37,1.03.55,1.54.14-.01.28-.02.41-.03.64-2.04,1.44-4.06,1.52-6.22.12-3.59.14-7.19.12-10.79-.02-4.5-.12-8.99-.74-13.45-.04-.26-.23-.49-.5-1.04-.28,1.56-.53,2.8-.73,4.04-.2,1.25-.42,2.5-.52,3.76-.11,1.26-.08,2.54-.12,3.8-.04,1.22-.13,2.43-.14,3.65,0,1.27.05,2.54.13,3.8.08,1.27.41,2.54.32,3.79-.09,1.21.78,2.33.33,3.63-.22-.15-.35-.19-.37-.27-.88-3.11-1.31-6.3-1.53-9.51-.31-4.5.04-8.99.68-13.43.28-1.95.67-3.93,1.51-5.77.42-.93.38-1.93-.36-3.03m-.27,40.58c-1.96.71-2.59.51-3.6-1.47-.57-1.12-1.09-2.31-1.34-3.53-.61-2.94-1.25-5.9-1.51-8.88-.27-3.04-.2-6.13-.08-9.19.14-3.69.4-7.38.77-11.06.27-2.73,1.1-5.37,2.04-7.95.62-1.68,1.47-3.12,3.23-3.89,1.16-.51,2.19-.44,3.09.35.53.47,1.08.6,1.73.63,1.71.08,2.76.82,3.36,2.55,1.34,3.83,1.96,7.77,2.24,11.79.22,3.21.51,6.42.59,9.64.12,4.47-.48,8.84-2.21,13.03-.49,1.2-.58,2.56-.86,3.85-.41,1.91-.9,3.79-1.79,5.55-.93,1.85-2.48,2.17-3.9.7-.6-.62-1.11-1.33-1.75-2.12"/><path class="cls-3" d="m136.52,138.6c-.32-.99-.15-1.98.46-3.29.13.02.26.04.38.06-.26,1.01-.52,2.01-.84,3.23m-1.46-38.64c1.82,2.77,2.66,20.34,1.5,26.14-1.31-2.52-2.44-23.02-1.5-26.14m.47,34.56c-.38.9-.51,1.92-.77,2.99-1.9-.57-1.89-.57-1.6-2.23.46-2.67.57-5.35.3-8.04-.04-.41,0-.83.17-1.3.09.23.19.46.27.7.52,1.55,1.01,3.11,1.55,4.66.38,1.08.56,2.09.08,3.22m-3.44,8.82c-1.28-.97-2.93-4.69-2.89-6.43.3.2.52.42.79.52.47.18,1.02.49,1.44.39,1.27-.3,1.95.4,2.67,1.22-.56,1.52-1.14,2.97-2.02,4.3m8.72-7.93c.04-.18.08-.35.12-.53,0-.02-.01-.03-.02-.05-.08-.16-.15-.32-.22-.49-1.81-1.04-3.17-3.24-2.96-4.9.89-6.96.91-13.93.32-20.91-.15-1.73-.3-3.47-.6-5.18-.42-2.39-.97-4.75-1.49-7.13-.11-.51-.25-1.04-.48-1.51-.29-.59-1.06-.61-1.39-.04-.15.26-.21.6-.23.91-.14,1.58-.25,3.16-.39,4.74-.03.33-.09.65-.14.98-.1,0-.2,0-.29,0-.48-2.83-.96-5.65-1.45-8.48-.32-.05-.53-.1-.73-.11-.15,0-.31.04-.51.07-.08.23-.15.33-.15.43.34,5.58.69,11.16,1.04,16.74.32,5.01.67,10.03.97,15.04.13,2.22.27,4.44.25,6.66-.01,1.32-.1,2.68-.75,4.18-2.31-2.69-4.26-5.3-5.23-8.49-1.69-5.59-2.47-11.35-3.17-17.13-.31-2.57-.6-5.13-.88-7.7-.08-.73-.23-1.36-1.36-1.46-.1.52-.3,1.05-.27,1.57.29,4.74.62,9.49.95,14.23.29,4.27,1.83,8.22,3.11,12.23.62,1.94,1.68,3.77,2.15,5.74.68,2.85,1.96,5.43,3.03,8.11.41,1.01,1.15,1.53,2.16,1.58,1.2.06,1.55-.91,1.91-1.82.34-.88.71-1.75,1.07-2.64.53.05,1.01.19,1.45.11.36-.07.9-.35.97-.63.12-.45.29-.9.46-1.36.06-.26.15-.53.28-.8.3-.95.47-1.93.04-3.02.49.6,1.06,1.05,1.71,1.37.1-.03.2-.07.3-.08"/></g></svg>